<?xml version="1.0" standalone="no"?>
<!DOCTYPE svg PUBLIC "-//W3C//DTD SVG 20010904//EN"
 "http://www.w3.org/TR/2001/REC-SVG-20010904/DTD/svg10.dtd">
<svg version="1.0" xmlns="http://www.w3.org/2000/svg"
 width="310.000000pt" height="310.000000pt" viewBox="0 0 310.000000 310.000000"
 preserveAspectRatio="xMidYMid meet">
<metadata>
Created by potrace 1.15, written by Peter Selinger 2001-2017
</metadata>
<g transform="translate(0.000000,310.000000) scale(0.100000,-0.100000)"
fill="#000000" stroke="none">
<path d="M810 3039 c-41 -4 -97 -12 -124 -18 -27 -5 -59 -7 -72 -5 -17 3 -23
-2 -28 -21 -4 -14 -4 -31 0 -37 4 -6 8 -26 9 -45 1 -19 8 -39 15 -43 7 -4 10
-15 7 -25 -4 -9 -3 -14 3 -10 6 3 10 -3 10 -14 0 -12 4 -21 10 -21 5 0 7 -7 4
-15 -4 -9 0 -15 7 -15 11 0 11 -3 -1 -11 -12 -8 -12 -12 -2 -16 15 -6 33 -45
38 -82 2 -13 8 -29 13 -34 6 -6 11 -16 11 -21 0 -6 -5 -4 -10 4 -8 13 -10 13
-10 -1 0 -9 7 -20 16 -23 8 -3 13 -10 9 -15 -3 -5 -1 -12 4 -15 5 -4 12 -32
16 -64 3 -31 10 -65 16 -75 5 -10 7 -22 3 -28 -3 -6 3 -13 15 -16 24 -6 26
-14 9 -31 -9 -9 -9 -20 1 -47 10 -28 10 -39 1 -50 -9 -11 -8 -18 4 -31 9 -8
14 -20 11 -25 -4 -5 -3 -14 1 -21 4 -6 8 -28 8 -47 0 -20 7 -41 16 -48 8 -7
11 -13 5 -13 -5 -1 -1 -5 10 -10 17 -7 17 -9 3 -9 -10 -1 -18 -8 -18 -16 0 -9
6 -12 18 -8 13 5 14 3 5 -7 -11 -12 -11 -13 22 -95 5 -11 7 -23 7 -27 -1 -5 2
-8 7 -8 5 0 12 -13 16 -30 4 -16 11 -30 16 -30 6 0 7 -10 3 -22 -6 -19 -5 -21
8 -11 16 14 38 0 38 -24 0 -9 6 -10 23 -4 16 6 41 4 78 -7 42 -12 101 -16 259
-17 194 0 207 1 248 23 23 12 51 22 62 22 10 0 21 4 24 9 4 5 29 12 56 16 39
5 48 10 40 20 -8 9 5 13 62 14 113 3 93 11 -26 11 -117 0 -223 19 -273 50 -72
43 -118 180 -158 466 -54 386 -133 621 -225 666 -39 20 -178 23 -320 7z"/>
<path d="M2519 1804 c0 -11 -3 -14 -5 -8 -5 12 -57 -11 -118 -51 -14 -9 -30
-14 -35 -10 -6 3 -30 -4 -53 -16 -24 -13 -59 -23 -78 -24 -42 -2 -90 -21 -90
-35 0 -5 -4 -10 -10 -10 -5 0 -10 7 -10 16 0 14 -1 14 -16 0 -8 -9 -19 -14
-23 -12 -4 3 -8 -1 -8 -9 0 -11 4 -12 14 -4 10 9 13 8 13 -5 0 -9 6 -16 13
-16 7 -1 5 -6 -6 -14 -19 -14 -7 -33 13 -21 6 3 10 4 10 1 0 -3 -15 -12 -32
-20 -33 -14 -33 -14 -6 -15 15 -1 30 4 34 10 3 6 16 8 28 5 21 -5 21 -5 1 10
-20 15 -19 15 5 13 14 -1 39 -1 55 0 23 1 27 3 15 11 -13 8 -13 10 2 10 9 0
19 -6 21 -12 4 -10 7 -10 14 -1 5 7 29 15 53 18 25 3 49 10 54 15 6 6 15 10
22 10 6 0 29 8 50 17 22 9 45 16 52 14 6 -1 12 3 12 9 0 5 6 10 14 10 7 0 25
10 40 21 34 27 31 54 -11 87 -30 22 -33 23 -34 6z"/>
<path d="M1005 1598 c-5 -16 -107 -442 -176 -738 -58 -245 -139 -633 -139
-661 0 -12 7 -19 20 -19 14 0 22 11 30 42 6 24 33 124 60 223 45 164 111 429
222 895 23 96 46 180 51 187 6 9 48 11 160 6 84 -3 153 -7 155 -8 3 -2 -23
-256 -48 -480 -5 -49 -17 -175 -25 -280 -22 -300 -22 -280 0 -280 17 0 22 18
47 195 15 107 44 341 64 520 19 179 37 327 40 329 2 2 41 10 86 17 107 17 259
18 280 2 12 -10 22 -86 47 -338 47 -475 62 -607 112 -989 23 -172 33 -201 62
-172 17 17 -21 469 -112 1339 -10 95 -21 175 -24 179 -11 10 -60 12 -379 13
-213 0 -338 5 -410 15 -126 18 -118 18 -123 3z"/>
<path d="M2247 1573 c-11 -3 -16 -11 -13 -21 3 -9 42 -163 86 -342 105 -426
220 -830 237 -837 8 -3 18 -2 23 3 12 12 -93 474 -262 1157 -12 48 -20 53 -71
40z"/>
</g>
</svg>
