<?xml version="1.0" standalone="no"?>
<!DOCTYPE svg PUBLIC "-//W3C//DTD SVG 20010904//EN"
 "http://www.w3.org/TR/2001/REC-SVG-20010904/DTD/svg10.dtd">
<svg version="1.0" xmlns="http://www.w3.org/2000/svg"
 width="310.000000pt" height="310.000000pt" viewBox="0 0 310.000000 310.000000"
 preserveAspectRatio="xMidYMid meet">
<metadata>
Created by potrace 1.15, written by Peter Selinger 2001-2017
</metadata>
<g transform="translate(0.000000,310.000000) scale(0.100000,-0.100000)"
fill="#000000" stroke="none">
<path d="M1415 2961 l30 -7 -45 -13 c-25 -7 -52 -16 -60 -19 -8 -3 -22 -6 -30
-7 -8 -1 -26 -6 -40 -10 -25 -8 -25 -8 -6 14 11 11 26 21 35 22 10 0 11 2 4 6
-22 8 -73 -36 -73 -63 0 -14 4 -22 10 -19 6 3 10 -3 10 -14 0 -26 34 -48 107
-71 45 -14 59 -23 64 -41 3 -13 2 -29 -3 -36 -6 -7 -7 -43 -4 -80 7 -70 8
-132 6 -218 -1 -27 0 -78 2 -113 3 -35 2 -65 -2 -67 -11 -7 -3 -558 9 -588 12
-32 15 -118 4 -116 -21 3 -33 -2 -33 -15 0 -8 -5 -16 -11 -18 -6 -2 -14 -28
-17 -57 -4 -43 -2 -52 8 -46 10 6 12 3 8 -13 -3 -12 -1 -20 4 -19 6 1 12 -10
13 -25 3 -21 -1 -28 -13 -29 -9 -1 -30 -2 -47 -3 -16 -2 -60 -4 -97 -4 -47 -2
-68 -6 -68 -14 0 -10 30 -12 132 -8 73 3 133 6 133 5 1 0 -1 -28 -3 -63 l-4
-62 -52 0 c-51 0 -99 -21 -83 -36 4 -4 35 -7 70 -7 l62 1 -58 -8 c-64 -8 -79
-16 -57 -30 9 -6 10 -10 3 -10 -6 0 -13 -12 -15 -28 -3 -26 -5 -27 -58 -27
l-55 0 -3 113 c-1 61 -6 112 -11 112 -5 0 -7 -57 -6 -127 2 -71 1 -122 -2
-115 -10 26 -30 11 -31 -24 -1 -31 1 -36 18 -31 17 4 20 0 21 -26 l1 -32 7 30
c6 29 8 30 61 30 l55 0 1 -45 c0 -34 5 -46 17 -48 10 -2 15 -7 12 -12 -3 -5
-12 -7 -20 -3 -8 3 -15 0 -15 -6 0 -7 -9 -22 -20 -34 -11 -12 -26 -39 -32 -60
-8 -27 -23 -47 -49 -64 -25 -16 -47 -44 -65 -81 -15 -31 -34 -70 -42 -87 -9
-16 -32 -125 -52 -241 l-36 -211 39 -1 c28 -1 44 3 53 16 12 15 12 14 7 -8 -6
-22 -5 -24 10 -11 13 10 37 12 99 7 175 -14 478 -18 478 -7 0 6 7 11 16 11 8
0 12 -5 9 -10 -4 -6 11 -10 38 -10 30 0 47 5 50 14 3 8 1 17 -6 20 -9 3 -9 5
0 5 6 1 15 -3 18 -9 3 -5 15 -10 26 -10 10 0 19 -4 19 -9 0 -6 8 -9 19 -8 15
1 17 6 11 27 -5 14 -23 111 -40 215 -17 105 -38 200 -46 212 -8 12 -23 47 -34
76 -20 53 -50 90 -91 111 -12 6 -27 28 -34 49 -7 21 -25 55 -40 76 -21 31 -26
48 -23 82 l3 44 58 3 c55 3 57 2 57 -23 0 -14 4 -25 10 -25 5 0 8 19 5 42 -2
24 -2 35 1 25 10 -32 34 -20 34 18 0 28 -4 35 -20 35 -19 0 -20 7 -22 113 l-2
112 -5 -115 -6 -115 -55 0 -55 0 0 50 c-1 28 3 55 8 62 13 19 -26 33 -77 28
-41 -4 -46 -2 -52 19 -3 12 -4 42 -2 67 l3 44 117 3 c105 2 117 1 121 -15 4
-14 5 -13 6 4 2 32 -12 36 -123 40 -54 1 -101 5 -104 7 -2 3 6 26 18 51 25 52
23 100 -7 142 -10 14 -21 31 -25 37 -9 17 -25 135 -16 130 13 -8 29 36 25 69
-4 31 -4 31 -5 -5 -2 -35 -15 -57 -25 -41 -3 5 -8 28 -12 52 -7 40 -5 43 11
39 17 -4 19 2 19 73 0 42 -3 72 -7 66 -13 -22 -18 1 -6 29 15 37 17 55 16 184
0 58 0 130 0 160 0 30 3 70 7 87 4 18 4 41 -1 50 -4 10 -6 39 -5 66 2 34 -1
47 -11 47 -10 0 -9 3 2 10 12 7 15 31 14 113 l0 104 57 12 c69 14 124 49 123
79 0 11 3 19 8 16 16 -10 8 23 -10 39 -27 24 -38 21 -16 -4 19 -22 19 -22 -2
-11 -12 6 -25 8 -29 4 -5 -4 -5 -2 -2 5 5 7 -7 14 -33 18 -22 4 -42 11 -46 16
-7 12 8 11 40 -1 14 -5 26 -6 26 -1 0 13 -33 19 -125 25 -47 3 -68 2 -50 -3z
m69 -1494 c29 -69 29 -76 1 -101 -14 -13 -23 -30 -20 -38 4 -9 -2 -14 -17 -15
-19 -2 -26 6 -41 52 -15 46 -16 61 -6 95 10 34 16 40 40 40 23 0 32 -7 43 -33z"/>
</g>
</svg>
