<svg width="97" height="97" viewBox="0 0 97 97" fill="none" xmlns="http://www.w3.org/2000/svg">
<g filter="url(#filter0_d_3391_532)">
<circle cx="48.5" cy="48.5" r="45.5" fill="#F5B75A"/>
</g>
<path d="M56.0254 49.25C55.6377 48.6038 55.1207 48.0222 54.4746 47.5053C53.8284 47.053 52.9883 46.6006 52.0191 46.2775C51.179 46.0191 50.2744 45.7606 49.3051 45.5021V40.1388C49.822 40.268 50.2097 40.3972 50.5328 40.6557C51.0498 41.108 51.5021 41.6896 51.8898 42.5297C52.2129 43.1112 52.4714 43.4989 52.7299 43.6928C52.9883 43.9513 53.376 44.0805 53.8284 44.0805C54.3453 44.0805 54.7977 43.8866 55.1854 43.4989C55.5731 43.1112 55.7023 42.6589 55.7023 42.1419C55.7023 41.5604 55.5731 41.0434 55.25 40.4619C54.9269 39.8803 54.5392 39.2987 53.893 38.7818C53.2468 38.2648 52.4714 37.8125 51.5667 37.4894C50.9205 37.2955 50.1451 37.1663 49.3051 37.1017V35.1631C49.3051 34.5169 48.7881 34 48.1419 34C47.4958 34 46.9788 34.5169 46.9788 35.1631V37.1017C45.8803 37.1663 44.911 37.4248 44.0064 37.7479C42.8432 38.2002 41.8739 38.911 41.2924 39.8157C40.6462 40.7203 40.3231 41.7542 40.3231 42.9174C40.3231 44.1451 40.6462 45.1144 41.2278 45.9544C41.8093 46.7945 42.6494 47.4407 43.6186 47.893C44.5233 48.3453 45.6218 48.6684 46.9788 48.9915V55.518C46.5911 55.4534 46.2034 55.3241 45.9449 55.1949C45.3633 54.8718 44.9756 54.5487 44.6525 54.0964C44.3294 53.644 44.071 53.0625 43.8125 52.4163C43.6186 51.8347 43.3602 51.447 43.0371 51.1239C42.714 50.8654 42.3263 50.6716 41.8739 50.6716C41.2924 50.6716 40.84 50.8654 40.5169 51.2532C40.1292 51.6409 40 52.0286 40 52.5455C40 53.4502 40.3231 54.3549 40.9047 55.2595C41.4862 56.2288 42.2617 56.9396 43.2309 57.5212C44.2648 58.1027 45.5572 58.4904 47.0434 58.6197V62.3676C47.0434 63.0137 47.5604 63.5307 48.2066 63.5307C48.8527 63.5307 49.3697 63.0137 49.3697 62.3676V58.6197C50.6621 58.5551 51.8252 58.232 52.7945 57.7796C54.0222 57.1981 54.9915 56.4226 55.6377 55.3887C56.2839 54.3549 56.607 53.2563 56.607 51.964C56.607 50.9301 56.4131 50.0254 56.0254 49.25ZM46.9788 44.9205C46.9142 44.8559 46.8496 44.8559 46.785 44.8559C46.3972 44.7267 45.9449 44.5328 45.5572 44.339C45.1695 44.1451 44.8464 43.8866 44.5879 43.5635C44.3294 43.2405 44.2648 42.9174 44.2648 42.465C44.2648 41.8188 44.5879 41.2373 45.2987 40.7203C45.7511 40.3972 46.3326 40.2034 46.9788 40.0741V44.9205ZM51.2436 54.6779C50.7267 55.0657 50.0805 55.3241 49.3051 55.4534V49.5731C49.6282 49.6377 49.8866 49.7669 50.1451 49.8316C50.7913 50.09 51.3729 50.4131 51.7606 50.8008C52.2129 51.2532 52.4068 51.7701 52.4068 52.4809C52.4068 53.321 52.0191 54.0964 51.2436 54.6779Z" fill="black"/>
<defs>
<filter id="filter0_d_3391_532" x="0" y="0" width="97" height="97" filterUnits="userSpaceOnUse" color-interpolation-filters="sRGB">
<feFlood flood-opacity="0" result="BackgroundImageFix"/>
<feColorMatrix in="SourceAlpha" type="matrix" values="0 0 0 0 0 0 0 0 0 0 0 0 0 0 0 0 0 0 127 0" result="hardAlpha"/>
<feOffset/>
<feGaussianBlur stdDeviation="1.5"/>
<feColorMatrix type="matrix" values="0 0 0 0 0 0 0 0 0 0 0 0 0 0 0 0 0 0 0.25 0"/>
<feBlend mode="normal" in2="BackgroundImageFix" result="effect1_dropShadow_3391_532"/>
<feBlend mode="normal" in="SourceGraphic" in2="effect1_dropShadow_3391_532" result="shape"/>
</filter>
</defs>
</svg>
