<?xml version="1.0" standalone="no"?>
<!DOCTYPE svg PUBLIC "-//W3C//DTD SVG 20010904//EN"
 "http://www.w3.org/TR/2001/REC-SVG-20010904/DTD/svg10.dtd">
<svg version="1.0" xmlns="http://www.w3.org/2000/svg"
 width="310.000000pt" height="310.000000pt" viewBox="0 0 310.000000 310.000000"
 preserveAspectRatio="xMidYMid meet">
<metadata>
Created by potrace 1.15, written by Peter Selinger 2001-2017
</metadata>
<g transform="translate(0.000000,310.000000) scale(0.100000,-0.100000)"
fill="#000000" stroke="none">
<path d="M760 2441 l0 -489 23 -6 c12 -3 119 -6 238 -6 154 0 218 -3 227 -12
9 -9 12 -9 12 1 0 11 30 12 153 6 231 -10 244 -10 360 -1 106 9 108 9 114 -13
6 -22 6 -22 20 -2 13 20 21 20 268 14 199 -5 257 -3 270 7 13 11 15 70 15 474
0 369 -3 466 -13 480 -13 18 -53 19 -703 27 -379 4 -755 8 -836 8 l-148 1 0
-489z"/>
<path d="M1210 1364 c0 -103 2 -114 15 -100 8 8 16 25 16 38 1 19 3 18 9 -7
l8 -30 1 28 c1 24 5 27 35 27 41 0 68 9 61 20 -5 8 33 5 83 -5 30 -7 28 -25
-2 -25 -14 0 -28 -5 -32 -11 -9 -16 17 -30 41 -22 18 5 19 4 5 -12 -14 -17
-13 -18 2 -12 10 3 20 1 24 -5 5 -7 -5 -9 -30 -6 -34 4 -38 2 -43 -23 -3 -18
-17 -32 -41 -44 -46 -23 -42 -22 -102 -24 l-50 -1 0 -44 0 -44 53 -5 c88 -7
583 -8 678 -1 85 7 89 8 82 28 -3 12 -9 39 -12 61 l-6 40 -53 0 c-50 0 -65 7
-39 19 6 3 -2 3 -19 0 -26 -4 -32 -1 -37 15 -5 19 -13 21 -84 21 -49 0 -73 4
-64 9 8 5 20 7 28 4 9 -3 11 0 7 10 -5 13 4 16 43 19 44 3 46 4 26 16 -12 7
-43 13 -68 14 -51 3 -65 28 -15 28 19 0 30 5 30 14 0 20 34 26 107 19 38 -4
63 -2 63 4 0 11 29 11 47 0 9 -6 16 12 27 73 1 3 5 11 9 18 7 9 -75 12 -397
12 l-406 0 0 -116z"/>
<path d="M820 1219 l0 -164 51 83 51 82 -18 28 c-10 15 -33 51 -51 81 l-33 55
0 -165z"/>
<path d="M1031 1300 l-52 -80 51 -82 c27 -45 50 -76 50 -68 2 57 5 310 3 310
0 0 -24 -36 -52 -80z"/>
<path d="M2170 1225 c0 -85 3 -155 8 -155 7 0 92 142 92 155 0 9 -90 155 -96
155 -2 0 -4 -70 -4 -155z"/>
<path d="M2379 1300 l-46 -79 46 -75 c25 -42 48 -76 51 -76 3 0 6 70 6 155 1
85 -1 155 -5 155 -3 -1 -27 -37 -52 -80z"/>
<path d="M2607 1210 c-4 -47 -7 -208 -7 -359 0 -241 2 -275 16 -286 13 -9 14
-16 5 -33 -6 -11 -11 -36 -11 -54 0 -29 -3 -33 -27 -34 -16 0 -455 -4 -978 -9
-522 -5 -936 -12 -920 -16 17 -4 24 -7 18 -8 -21 -2 -14 -21 7 -21 21 0 27
-15 10 -25 -6 -3 -10 -10 -10 -16 0 -14 20 -11 38 8 16 16 16 16 -1 10 -10 -4
-16 -3 -12 2 6 11 52 8 63 -4 4 -4 2 -6 -3 -2 -6 3 -18 -1 -28 -8 -14 -10 -1
-11 75 -7 136 9 1380 8 1538 0 75 -4 199 -12 275 -17 77 -6 209 -12 293 -14
l152 -4 0 133 c0 140 -4 164 -26 164 -8 0 -14 9 -14 19 0 11 -4 23 -10 26 -6
4 -10 -9 -10 -32 0 -21 -4 -43 -8 -50 -4 -6 -37 -13 -75 -15 l-67 -3 0 261 c0
144 -3 296 -7 339 -6 75 -7 77 -20 50 -14 -25 -18 -27 -59 -20 -40 6 -44 4
-44 -14 0 -14 -6 -21 -20 -21 -11 0 -20 7 -20 15 0 8 -9 15 -20 15 -12 0 -32
12 -45 28 -22 25 -25 25 -26 7 -1 -11 -5 3 -8 30 -6 48 -6 47 -14 -35z"/>
<path d="M2382 909 l-50 -81 44 -74 c25 -40 49 -76 55 -79 5 -4 9 57 9 154 0
89 -2 161 -4 161 -2 0 -27 -36 -54 -81z"/>
<path d="M820 820 l0 -164 51 82 50 83 -50 82 -51 82 0 -165z"/>
<path d="M1027 900 l-48 -79 51 -81 c29 -44 54 -80 56 -80 2 0 4 72 4 160 0
88 -3 160 -7 160 -5 0 -30 -36 -56 -80z"/>
<path d="M2170 825 c0 -85 2 -155 4 -155 9 0 97 153 94 164 -6 21 -83 146 -90
146 -5 0 -8 -70 -8 -155z"/>
<path d="M1563 953 l-363 -3 0 -190 0 -190 38 -1 c127 -3 688 2 740 7 l63 6
-6 112 c-8 172 -8 212 4 234 9 17 7 21 -12 26 -12 3 -40 5 -62 3 -22 -1 -203
-3 -402 -4z"/>
<path d="M32 543 c-24 -3 -32 -9 -32 -24 0 -18 8 -19 140 -19 137 0 142 -1
166 -25 14 -14 33 -25 44 -25 28 0 51 -11 44 -21 -3 -5 5 -9 18 -9 38 0 68
-11 68 -25 0 -7 10 -15 22 -18 21 -6 21 -7 3 -27 -16 -17 -16 -20 -2 -20 9 0
19 5 22 10 3 6 18 9 33 9 l27 -1 -30 -8 c-23 -6 -16 -8 33 -7 34 0 62 3 62 7
0 3 -7 15 -15 26 -15 20 -20 38 -8 31 11 -7 7 98 -4 117 -8 14 -40 16 -241 16
-127 1 -233 4 -236 8 -5 9 -64 11 -114 5z"/>
<path d="M1647 324 c-4 -4 -30 -7 -58 -7 -45 1 -49 0 -32 -12 22 -17 37 -19
27 -4 -4 7 -1 10 7 7 8 -3 13 -11 12 -17 -2 -6 11 -12 30 -12 l32 -2 -35 -6
c-29 -5 -41 -2 -73 23 -31 25 -40 28 -47 16 -11 -18 -4 -29 18 -25 9 1 11 0 4
-2 -7 -3 -10 -9 -7 -14 9 -14 -7 -10 -29 6 -13 10 -24 11 -37 5 -9 -6 -25 -7
-35 -3 -14 5 -16 3 -11 -11 5 -12 3 -16 -5 -13 -7 2 -12 12 -10 22 4 18 3 18
-24 0 -24 -15 -26 -15 -21 -1 4 10 1 16 -8 16 -8 0 -15 -7 -15 -15 0 -12 -4
-13 -19 -6 -15 9 -20 7 -24 -9 -4 -14 -10 -18 -22 -13 -17 6 -17 7 1 21 18 14
18 14 -1 7 -11 -5 -32 -8 -47 -8 -16 0 -28 -4 -28 -8 0 -5 -13 -9 -30 -9 -19
0 -34 -7 -42 -20 -15 -24 -28 -26 -28 -5 0 11 -11 15 -36 15 -21 0 -33 -4 -29
-10 4 -6 -4 -6 -21 0 -17 7 -31 7 -37 1 -5 -5 -16 -7 -23 -4 -11 4 -12 9 -3
19 17 20 5 28 -14 10 -9 -9 -22 -13 -31 -10 -9 3 -22 -1 -31 -9 -8 -9 -24 -13
-36 -10 -15 4 -20 3 -15 -5 4 -7 2 -12 -3 -12 -6 0 -11 7 -11 15 0 8 -10 19
-22 25 -23 11 -23 11 -3 -6 20 -16 20 -16 -3 -11 -16 4 -33 -4 -62 -31 -22
-19 -40 -40 -40 -45 0 -6 11 0 24 12 14 13 29 20 35 16 16 -9 13 -28 -3 -22
-7 3 -18 1 -24 -5 -10 -10 -62 -19 -62 -10 0 3 15 18 33 33 17 16 27 28 20 29
-7 0 -28 -16 -47 -35 -43 -43 -61 -47 -21 -5 16 17 24 30 18 30 -6 0 -23 -13
-36 -30 -31 -36 -44 -39 -21 -5 10 16 12 25 5 25 -6 0 -20 -15 -31 -32 -11
-18 -20 -28 -20 -21 0 7 14 33 32 59 28 42 30 48 15 59 -9 7 -15 14 -12 17 4
3 -18 3 -98 -1 -10 -1 -15 -5 -12 -11 3 -5 2 -10 -4 -10 -6 0 -14 -12 -17 -27
-7 -26 -20 -42 -36 -43 -4 0 5 20 19 45 20 37 22 45 9 45 -9 0 -16 -7 -16 -15
0 -8 -4 -15 -10 -15 -10 0 -14 15 -11 34 1 5 -5 4 -13 -3 -9 -7 -14 -18 -13
-23 1 -6 -4 -13 -11 -15 -8 -3 -10 1 -6 11 3 9 1 16 -5 16 -6 0 -11 -5 -11
-12 0 -9 -3 -9 -11 -1 -16 16 -39 5 -39 -17 0 -11 -4 -21 -9 -24 -12 -8 -21
-46 -11 -46 5 0 16 20 25 45 10 24 22 42 27 39 6 -4 5 -10 -3 -16 -10 -7 -9
-8 6 -4 36 10 48 -7 23 -34 -15 -16 -23 -19 -26 -11 -3 8 2 17 9 22 11 7 11 9
1 9 -18 0 -26 -28 -13 -44 9 -10 3 -12 -27 -11 -34 1 -37 3 -35 31 0 16 -1 23
-4 17 -2 -7 -9 -13 -14 -13 -6 0 -9 6 -8 13 3 27 -2 37 -18 37 -15 0 -15 -2
-4 -9 8 -5 16 -24 18 -43 2 -18 8 -34 13 -36 5 -2 6 -10 3 -19 -5 -12 -1 -14
18 -9 21 6 22 5 6 -4 -23 -15 -51 -5 -43 15 3 8 1 15 -4 15 -6 0 -10 7 -10 15
0 8 -5 15 -10 15 -6 0 -8 -11 -6 -24 3 -17 0 -23 -12 -22 -11 1 -16 -6 -16
-17 2 -14 -1 -15 -12 -6 -8 6 -14 18 -14 26 0 20 -27 46 -40 38 -5 -3 -10 -16
-10 -29 0 -12 -3 -26 -6 -29 -4 -4 -8 -21 -9 -39 l-3 -33 15 30 c9 16 16 42
15 57 0 17 3 26 10 22 6 -4 8 -22 5 -40 -3 -19 -2 -34 4 -34 5 0 9 -5 9 -11 0
-5 -5 -7 -10 -4 -16 10 -42 -16 -35 -34 4 -11 1 -11 -14 3 -11 10 -18 23 -15
27 3 5 -3 6 -13 3 -12 -3 -11 -1 4 8 15 9 19 18 13 27 -4 8 -6 20 -3 28 3 7
-2 16 -11 19 -9 3 -13 10 -10 15 3 5 0 17 -5 26 -9 16 -10 16 -11 -3 0 -12 7
-34 15 -50 17 -33 9 -47 -11 -20 -10 15 -14 16 -14 5 0 -8 6 -21 12 -28 11
-10 10 -11 -3 -6 -14 5 -17 -2 -17 -39 -1 -50 2 -54 25 -30 14 13 14 17 2 26
-12 8 -12 9 1 5 8 -2 16 -14 18 -26 3 -21 7 -22 70 -19 37 2 76 8 87 12 16 6
17 6 5 -3 -13 -9 -13 -11 0 -11 9 0 21 5 28 12 9 9 12 9 12 1 0 -9 110 -12
405 -12 223 0 405 2 405 4 0 2 -7 11 -16 19 -8 9 -11 16 -5 16 6 0 16 -9 23
-20 14 -22 78 -29 78 -8 0 9 3 9 12 0 21 -21 30 -13 23 18 -9 39 7 39 22 0
l11 -29 381 1 c210 1 381 5 381 10 0 5 8 5 18 0 30 -16 80 -12 85 6 4 15 5 15
6 0 1 -16 14 -18 115 -18 101 0 115 2 119 18 4 16 5 16 6 0 1 -16 30 -17 391
-17 l391 -1 -2 140 c-1 128 -7 158 -24 130 -3 -5 -1 -10 6 -10 9 0 10 -3 2
-11 -8 -8 -32 -8 -84 0 -72 10 -149 18 -274 27 -33 2 -85 7 -115 9 -186 17
-642 34 -675 25 -5 -2 -17 -1 -25 3 -27 10 -140 14 -140 4 0 -5 -7 -4 -15 3
-11 9 -15 9 -15 1 0 -9 -5 -9 -20 -1 -17 9 -19 8 -13 -7 5 -15 3 -16 -8 -5
-16 14 -33 16 -24 2 3 -5 2 -10 -4 -10 -5 0 -11 7 -13 16 -2 9 -6 12 -11 8z"/>
</g>
</svg>
