<svg width="97" height="97" viewBox="0 0 97 97" fill="none" xmlns="http://www.w3.org/2000/svg">
<g filter="url(#filter0_d_3391_516)">
<circle cx="48.5" cy="48.5" r="45.5" fill="#F5B75A"/>
</g>
<path d="M27.377 45.8125C26.7516 45.8125 26.1402 45.998 25.6202 46.3454C25.1002 46.6929 24.6949 47.1867 24.4556 47.7646C24.2162 48.3424 24.1536 48.9782 24.2756 49.5916C24.3976 50.205 24.6988 50.7684 25.141 51.2106C25.5833 51.6529 26.1467 51.9541 26.7601 52.0761C27.3735 52.1981 28.0093 52.1355 28.5871 51.8961C29.1649 51.6568 29.6588 51.2515 30.0062 50.7315C30.3537 50.2114 30.5392 49.6001 30.5392 48.9747C30.5382 48.1363 30.2048 47.3325 29.612 46.7397C29.0191 46.1469 28.2154 45.8134 27.377 45.8125ZM27.377 50.0287C27.1685 50.0287 26.9647 49.9669 26.7914 49.8511C26.6181 49.7353 26.483 49.5706 26.4032 49.378C26.3234 49.1854 26.3025 48.9735 26.3432 48.769C26.3839 48.5646 26.4843 48.3767 26.6317 48.2293C26.7791 48.0819 26.9669 47.9815 27.1714 47.9409C27.3758 47.9002 27.5878 47.9211 27.7804 48.0008C27.973 48.0806 28.1376 48.2157 28.2534 48.3891C28.3692 48.5624 28.4311 48.7662 28.4311 48.9747C28.4307 49.2541 28.3196 49.522 28.122 49.7196C27.9244 49.9173 27.6565 50.0284 27.377 50.0287Z" fill="black"/>
<path d="M67.4317 45.8125C66.8063 45.8125 66.1949 45.998 65.6749 46.3454C65.1549 46.6929 64.7496 47.1867 64.5102 47.7646C64.2709 48.3424 64.2083 48.9782 64.3303 49.5916C64.4523 50.205 64.7535 50.7684 65.1957 51.2106C65.6379 51.6529 66.2014 51.9541 66.8148 52.0761C67.4282 52.1981 68.064 52.1355 68.6418 51.8961C69.2196 51.6568 69.7135 51.2515 70.0609 50.7315C70.4084 50.2114 70.5939 49.6001 70.5939 48.9747C70.5929 48.1363 70.2595 47.3325 69.6666 46.7397C69.0738 46.1469 68.2701 45.8134 67.4317 45.8125ZM67.4317 50.0287C67.2232 50.0287 67.0194 49.9669 66.8461 49.8511C66.6728 49.7353 66.5377 49.5706 66.4579 49.378C66.3781 49.1854 66.3572 48.9735 66.3979 48.769C66.4386 48.5646 66.539 48.3767 66.6864 48.2293C66.8338 48.0819 67.0216 47.9815 67.2261 47.9409C67.4305 47.9002 67.6425 47.9211 67.8351 48.0008C68.0277 48.0806 68.1923 48.2157 68.3081 48.3891C68.4239 48.5624 68.4857 48.7662 68.4857 48.9747C68.4854 49.2541 68.3743 49.522 68.1767 49.7196C67.9791 49.9173 67.7112 50.0284 67.4317 50.0287Z" fill="black"/>
<path d="M74.8108 48.9722C74.8108 47.9926 74.6157 47.0229 74.237 46.1196C73.8583 45.2162 73.3036 44.3973 72.6051 43.7106C71.9066 43.0239 71.0783 42.4831 70.1687 42.1199C69.259 41.7566 68.2861 41.5781 67.3067 41.5948C63.3076 41.6616 60.054 45.0177 60.054 49.0762V52.6172C57.1666 51.8313 52.9554 51.0803 47.4054 51.0803C41.8554 51.0803 37.6442 51.8313 34.7567 52.6172V48.9722C34.7567 47.9791 34.5563 46.9963 34.1674 46.0825C33.7784 45.1688 33.2091 44.343 32.4934 43.6545C31.7777 42.9661 30.9304 42.4292 30.0022 42.0761C29.0741 41.7229 28.0842 41.5608 27.0919 41.5993C25.2375 41.6775 23.4801 42.4491 22.1677 43.7615C20.8553 45.0739 20.0836 46.8313 20.0055 48.6857C19.9351 50.508 20.5418 52.2919 21.7085 53.6935C22.8752 55.0951 24.5195 56.0152 26.3243 56.2766V60.5668C26.3255 61.6846 26.7702 62.7563 27.5606 63.5467C28.351 64.3371 29.4227 64.7817 30.5405 64.783V67.9451C30.5405 68.2247 30.6516 68.4928 30.8492 68.6905C31.0469 68.8881 31.315 68.9992 31.5946 68.9992H34.7567C34.9525 68.9992 35.1443 68.9447 35.3108 68.8418C35.4773 68.7389 35.6119 68.5916 35.6994 68.4166L37.5162 64.783H57.2945L59.1113 68.4166C59.1988 68.5916 59.3334 68.7389 59.4999 68.8418C59.6664 68.9447 59.8583 68.9992 60.054 68.9992H63.2162C63.4957 68.9992 63.7638 68.8881 63.9615 68.6905C64.1592 68.4928 64.2702 68.2247 64.2702 67.9451V64.783C65.3881 64.7817 66.4597 64.3371 67.2502 63.5467C68.0406 62.7563 68.4852 61.6846 68.4865 60.5668V56.2754C70.2416 56.0197 71.8462 55.1412 73.0074 53.8004C74.1685 52.4596 74.8086 50.7459 74.8108 48.9722ZM34.1053 66.8911H32.6486V64.783H35.1594L34.1053 66.8911ZM62.1621 66.8911H60.7054L59.6514 64.783H62.1621V66.8911ZM67.4324 54.2424C67.1528 54.2424 66.8847 54.3535 66.6871 54.5512C66.4894 54.7488 66.3783 55.0169 66.3783 55.2965V60.5668C66.3777 61.1257 66.1554 61.6615 65.7602 62.0567C65.365 62.4519 64.8291 62.6742 64.2702 62.6749H30.5405C29.9816 62.6742 29.4458 62.4519 29.0506 62.0567C28.6554 61.6615 28.4331 61.1257 28.4324 60.5668V55.2965C28.4324 55.0169 28.3213 54.7488 28.1237 54.5512C27.926 54.3535 27.6579 54.2424 27.3783 54.2424C26.6689 54.2424 25.9667 54.0992 25.3139 53.8213C24.6611 53.5434 24.0712 53.1366 23.5794 52.6252C23.0876 52.1138 22.7042 51.5083 22.452 50.8452C22.1999 50.182 22.0842 49.4748 22.112 48.7658C22.1679 47.4419 22.7189 46.1872 23.6559 45.2502C24.5929 44.3132 25.8475 43.7622 27.1715 43.7064C27.8804 43.6785 28.5877 43.7941 29.2509 44.0462C29.9141 44.2983 30.5195 44.6816 31.031 45.1734C31.5424 45.6651 31.9493 46.255 32.2273 46.9077C32.5053 47.5605 32.6486 48.2627 32.6486 48.9722V53.2674C30.987 53.8472 30.1139 54.327 30.0238 54.3777L31.055 56.2164C31.1094 56.1861 36.6267 53.1884 47.4054 53.1884C58.184 53.1884 63.7013 56.1861 63.7535 56.2152L64.787 54.3777C64.6969 54.327 63.8237 53.8466 62.1621 53.2674V49.0762C62.1621 46.161 64.4858 43.7504 67.3419 43.7027C68.0377 43.6906 68.7291 43.8165 69.3761 44.0731C70.023 44.3297 70.6128 44.7118 71.1112 45.1976C71.6097 45.6833 72.007 46.2629 72.2802 46.903C72.5535 47.5431 72.6973 48.2309 72.7032 48.9269C72.7092 49.6228 72.5773 50.3131 72.3151 50.9578C72.0529 51.6025 71.6655 52.1888 71.1755 52.683C70.6855 53.1772 70.1024 53.5695 69.4599 53.8371C68.8175 54.1048 68.1284 54.2425 67.4324 54.2424Z" fill="black"/>
<path d="M28.4323 34.2162C28.433 33.6573 28.6553 33.1215 29.0505 32.7263C29.4457 32.3311 29.9815 32.1088 30.5404 32.1081H64.2702C64.8291 32.1088 65.3649 32.3311 65.7601 32.7263C66.1553 33.1215 66.3776 33.6573 66.3783 34.2162V42.1875H68.4864V34.2162C68.4851 33.0984 68.0405 32.0267 67.2501 31.2363C66.4597 30.4459 65.388 30.0013 64.2702 30H30.5404C29.4226 30.0013 28.3509 30.4459 27.5605 31.2363C26.7701 32.0267 26.3255 33.0984 26.3242 34.2162V42.3193H28.4323V34.2162Z" fill="black"/>
<path d="M41.082 37.3783C41.082 36.7961 41.5539 36.3242 42.1361 36.3242C42.7182 36.3242 43.1901 36.7961 43.1901 37.3783C43.1901 37.9604 42.7182 38.4323 42.1361 38.4323C41.5539 38.4323 41.082 37.9604 41.082 37.3783Z" fill="black"/>
<path d="M46.3516 42.6478C46.3516 42.0657 46.8235 41.5938 47.4056 41.5938C47.9878 41.5938 48.4597 42.0657 48.4597 42.6478C48.4597 43.2299 47.9878 43.7019 47.4056 43.7019C46.8235 43.7019 46.3516 43.2299 46.3516 42.6478Z" fill="black"/>
<path d="M35.8125 42.6478C35.8125 42.0657 36.2844 41.5938 36.8666 41.5938C37.4487 41.5938 37.9206 42.0657 37.9206 42.6478C37.9206 43.2299 37.4487 43.7019 36.8666 43.7019C36.2844 43.7019 35.8125 43.2299 35.8125 42.6478Z" fill="black"/>
<path d="M41.082 47.9173C41.082 47.3352 41.5539 46.8633 42.1361 46.8633C42.7182 46.8633 43.1901 47.3352 43.1901 47.9173C43.1901 48.4995 42.7182 48.9714 42.1361 48.9714C41.5539 48.9714 41.082 48.4995 41.082 47.9173Z" fill="black"/>
<path d="M51.6211 37.3783C51.6211 36.7961 52.093 36.3242 52.6751 36.3242C53.2573 36.3242 53.7292 36.7961 53.7292 37.3783C53.7292 37.9604 53.2573 38.4323 52.6751 38.4323C52.093 38.4323 51.6211 37.9604 51.6211 37.3783Z" fill="black"/>
<path d="M56.8906 42.6478C56.8906 42.0657 57.3625 41.5938 57.9447 41.5938C58.5268 41.5938 58.9987 42.0657 58.9987 42.6478C58.9987 43.2299 58.5268 43.7019 57.9447 43.7019C57.3625 43.7019 56.8906 43.2299 56.8906 42.6478Z" fill="black"/>
<path d="M51.6211 47.9173C51.6211 47.3352 52.093 46.8633 52.6751 46.8633C53.2573 46.8633 53.7292 47.3352 53.7292 47.9173C53.7292 48.4995 53.2573 48.9714 52.6751 48.9714C52.093 48.9714 51.6211 48.4995 51.6211 47.9173Z" fill="black"/>
<defs>
<filter id="filter0_d_3391_516" x="0" y="0" width="97" height="97" filterUnits="userSpaceOnUse" color-interpolation-filters="sRGB">
<feFlood flood-opacity="0" result="BackgroundImageFix"/>
<feColorMatrix in="SourceAlpha" type="matrix" values="0 0 0 0 0 0 0 0 0 0 0 0 0 0 0 0 0 0 127 0" result="hardAlpha"/>
<feOffset/>
<feGaussianBlur stdDeviation="1.5"/>
<feColorMatrix type="matrix" values="0 0 0 0 0 0 0 0 0 0 0 0 0 0 0 0 0 0 0.25 0"/>
<feBlend mode="normal" in2="BackgroundImageFix" result="effect1_dropShadow_3391_516"/>
<feBlend mode="normal" in="SourceGraphic" in2="effect1_dropShadow_3391_516" result="shape"/>
</filter>
</defs>
</svg>
