<?xml version="1.0" standalone="no"?>
<!DOCTYPE svg PUBLIC "-//W3C//DTD SVG 20010904//EN"
 "http://www.w3.org/TR/2001/REC-SVG-20010904/DTD/svg10.dtd">
<svg version="1.0" xmlns="http://www.w3.org/2000/svg"
 width="310.000000pt" height="310.000000pt" viewBox="0 0 310.000000 310.000000"
 preserveAspectRatio="xMidYMid meet">
<metadata>
Created by potrace 1.15, written by Peter Selinger 2001-2017
</metadata>
<g transform="translate(0.000000,310.000000) scale(0.100000,-0.100000)"
fill="#000000" stroke="none">
<path d="M1562 3083 c-3 -10 -6 -52 -5 -93 2 -179 13 -501 19 -572 l7 -77 -37
-34 c-28 -27 -36 -42 -36 -71 0 -22 -5 -36 -12 -36 -7 0 -58 -5 -113 -10 -55
-6 -152 -15 -215 -20 -166 -15 -180 -18 -180 -39 0 -11 -39 -53 -95 -102 -52
-46 -95 -89 -95 -97 0 -8 -83 -264 -185 -570 -101 -307 -216 -653 -255 -771
-39 -117 -70 -223 -68 -234 3 -19 15 -23 93 -35 50 -7 227 -36 394 -63 l305
-50 560 10 c309 6 676 14 816 18 140 4 265 6 277 5 44 -5 62 -83 -213 918
-108 392 -151 552 -158 594 -3 17 -37 63 -86 116 -50 56 -80 97 -81 112 0 18
-35 50 -151 141 l-150 118 -86 -10 c-124 -16 -122 -16 -122 20 0 21 -9 39 -28
58 -41 37 -60 116 -43 169 8 24 11 55 7 78 -19 113 -21 153 -9 170 16 22 17
96 2 111 -11 11 -8 99 7 171 8 42 -12 92 -38 92 -10 0 -22 -8 -26 -17z m-207
-1019 c82 -8 151 -17 153 -18 1 -2 -17 -15 -41 -29 -32 -19 -60 -26 -103 -28
-55 -2 -67 2 -132 41 -82 48 -95 62 -55 55 15 -3 95 -12 178 -21z m-230 -36
c41 -24 75 -46 75 -50 0 -5 -17 -9 -37 -9 -42 -2 -51 -2 -178 -13 -49 -5 -86
-4 -82 0 24 24 133 113 140 114 4 0 41 -19 82 -42z m854 -176 c7 -51 12 -95
10 -97 -6 -5 -353 -32 -361 -28 -11 6 -10 165 1 182 6 9 53 17 147 26 206 19
187 27 203 -83z m168 6 l115 -83 -101 -9 c-56 -5 -103 -7 -106 -5 -6 6 -32
179 -28 179 3 0 56 -37 120 -82z m-834 57 c18 -13 17 -17 -16 -107 -20 -51
-40 -92 -45 -91 -5 1 -81 42 -168 90 l-159 88 70 7 c60 7 239 23 285 26 8 1
23 -5 33 -13z m267 -99 l0 -93 -47 -6 c-97 -12 -223 -20 -223 -13 0 10 70 189
76 196 6 6 175 17 187 12 4 -2 7 -45 7 -96z m-413 -118 c40 -22 75 -43 78 -47
2 -5 -5 -71 -16 -147 -11 -76 -17 -150 -14 -164 4 -14 10 -54 13 -90 7 -65 7
-64 30 100 12 91 27 195 33 231 l10 66 52 6 c29 3 92 9 140 13 l88 7 -3 -531
c-2 -292 -5 -532 -8 -535 -3 -2 -25 -7 -50 -10 -25 -3 -37 -3 -27 0 15 4 17
19 17 123 0 132 1 130 -75 130 -76 0 -75 2 -75 -131 0 -99 3 -119 15 -119 17
0 20 -16 5 -25 -5 -3 -10 -13 -10 -21 0 -10 12 -14 42 -14 77 0 34 -8 -84 -15
-84 -5 -118 -4 -118 4 0 6 7 11 15 11 12 0 15 19 15 115 l0 115 -70 0 -70 0 0
-104 c0 -87 -15 -255 -24 -264 -3 -3 -710 -19 -714 -16 -4 3 156 497 366 1131
l116 352 126 -66 c69 -36 158 -83 197 -105z m1172 -55 c27 -105 171 -637 282
-1034 43 -157 79 -290 79 -296 0 -6 -399 98 -428 113 -3 1 -34 180 -82 479
-22 138 -51 318 -65 400 -13 83 -33 206 -44 274 -11 69 -19 126 -18 127 1 1
52 6 112 12 61 5 117 10 126 11 13 1 22 -20 38 -86z m-334 35 c3 -13 14 -79
24 -148 11 -69 41 -255 66 -415 26 -159 50 -312 54 -340 5 -27 18 -114 31
-193 13 -78 21 -144 19 -146 -2 -2 -129 -8 -281 -12 l-278 -7 0 22 c0 22 -2
22 135 27 31 1 40 5 39 17 -2 15 13 17 116 17 65 0 132 3 149 6 32 7 42 30 16
40 -20 8 -19 24 0 24 13 0 15 17 13 118 l-3 117 -70 0 -70 0 -3 -117 c-2 -101
0 -118 13 -118 8 0 15 -7 15 -15 0 -12 -16 -15 -80 -15 l-80 0 0 105 0 105
-70 0 -70 0 0 -75 0 -75 -35 0 -35 0 0 535 c0 420 3 537 13 540 13 5 233 21
314 24 47 1 53 -1 58 -21z m-541 -1203 c-5 -12 4 -15 45 -15 45 0 51 -3 51
-20 0 -11 -6 -22 -12 -25 -7 -2 -104 -5 -215 -7 -219 -4 -211 -6 -197 48 5 19
14 21 107 23 56 1 104 4 106 7 2 2 30 4 62 4 48 0 57 -3 53 -15z m912 -137
c96 -23 174 -45 174 -49 0 -3 -163 -10 -362 -14 -200 -4 -523 -10 -718 -15
-195 -4 -357 -6 -359 -4 -2 2 0 23 3 47 l7 45 272 7 c310 7 763 21 790 23 10
1 97 -17 193 -40z m-1312 -30 c-4 -24 -8 -44 -9 -46 -3 -3 -340 53 -390 66
-18 4 48 9 160 12 105 3 202 7 218 8 27 2 27 1 21 -40z"/>
</g>
</svg>
