<svg width="97" height="97" viewBox="0 0 97 97" fill="none" xmlns="http://www.w3.org/2000/svg">
<g filter="url(#filter0_d_3391_546)">
<circle cx="48.5" cy="48.5" r="45.5" fill="#F5B75A"/>
</g>
<g clip-path="url(#clip0_3391_546)">
<path d="M26.3768 47.5176C25.45 47.5176 24.6179 47.5122 23.7859 47.5193C23.0645 47.5254 22.6472 47.8954 22.6407 48.5163C22.6342 49.1389 23.0544 49.5465 23.7578 49.5471C29.7458 49.5523 35.7338 49.5516 41.7217 49.5449C41.9335 49.5508 42.1436 49.5068 42.3348 49.4166C42.5427 49.3236 42.7091 49.1586 42.8027 48.9524C42.8964 48.7463 42.9108 48.5133 42.8432 48.2974C42.694 47.7125 42.2786 47.5118 41.6919 47.513C37.5217 47.5216 33.3515 47.5231 29.1813 47.5175H28.4343C28.4343 47.1193 28.4343 46.7857 28.4343 46.4519C28.434 44.8827 28.4423 43.3134 28.429 41.7443C28.4236 41.1101 27.9826 40.6634 27.412 40.6563C26.8323 40.6491 26.4108 41.0809 26.3812 41.7218C26.3704 41.9546 26.377 42.1882 26.3769 42.4215C26.3767 44.0926 26.3768 45.7637 26.3768 47.5176Z" fill="white"/>
<path d="M19.5451 44.1926C20.6553 44.1926 21.7655 44.199 22.8756 44.1904C23.657 44.1845 24.126 43.7725 24.1137 43.1291C24.102 42.5146 23.6576 42.1381 22.8877 42.1352C20.6674 42.127 18.4471 42.1268 16.2267 42.1347C15.309 42.1381 15.0807 42.3611 15.084 43.18C15.0871 43.9334 15.3814 44.1876 16.2786 44.1916C17.3674 44.1966 18.4563 44.1928 19.5451 44.1926Z" fill="white"/>
<path d="M62.37 33.3808H28.4763V36.4783C30.0187 36.4783 31.5327 36.4772 33.0467 36.4789C33.5387 36.4794 34.0337 36.4553 34.5221 36.4997C35.146 36.5566 35.5141 36.9811 35.5022 37.5479C35.491 38.0817 35.1236 38.4714 34.5372 38.5539C34.3668 38.5709 34.1955 38.5759 34.0245 38.5691C30.1511 38.5698 26.2777 38.57 22.4043 38.5696C22.2759 38.5696 22.1469 38.5757 22.0192 38.5658C21.3662 38.5152 20.9189 38.1103 20.8971 37.5556C20.8746 36.9811 21.3334 36.506 22.018 36.4896C23.2158 36.4608 24.4148 36.4794 25.6132 36.4783C25.843 36.478 26.0728 36.4783 26.3768 36.4783C26.3768 35.4186 26.3734 34.4273 26.3776 33.4358C26.3838 31.9875 27.0745 31.2752 28.5351 31.2744C39.7923 31.2681 51.0496 31.2679 62.3068 31.2739C63.7872 31.2746 64.5091 32.0099 64.5121 33.4738C64.5161 35.4898 64.5164 37.5059 64.5131 39.522C64.5131 39.7494 64.5131 39.9769 64.5131 40.2701H65.2662C67.4491 40.2701 69.6322 40.2804 71.815 40.266C72.9952 40.2583 73.8655 40.732 74.4418 41.7602C76.248 44.9829 78.0584 48.2032 79.8732 51.4211C80.4359 52.4024 80.726 53.514 80.714 54.6426C80.6967 56.4676 80.7145 58.2928 80.7077 60.1178C80.7033 61.314 79.9936 62.0813 78.7985 62.0063C77.6829 61.9363 77.0333 62.1094 76.5795 63.3511C75.7948 65.4987 73.4511 66.7497 71.1876 66.596C70.0369 66.5264 68.9357 66.1067 68.0344 65.394C67.133 64.6813 66.4753 63.7104 66.151 62.6136C66.0028 62.1133 65.7869 62.0183 65.3123 62.0196C59.5767 62.0346 53.8411 62.0337 48.1055 62.017C47.6126 62.0155 47.3758 62.1128 47.2188 62.6343C46.8706 63.7917 46.1517 64.805 45.1707 65.5212C44.1898 66.2373 43.0004 66.6173 41.7823 66.6035C40.5753 66.5876 39.4054 66.1877 38.445 65.4628C37.4846 64.7378 36.7845 63.7262 36.4479 62.577C36.3083 62.0897 36.0853 62.0171 35.65 62.0196C32.9963 62.035 30.3425 62.0289 27.6886 62.0263C26.7211 62.0254 26.38 61.6894 26.3781 60.7285C26.3739 58.5865 26.3768 56.4445 26.3768 54.2259C26.0977 54.2135 25.851 54.1932 25.6042 54.1929C23.3784 54.1904 21.1527 54.1894 18.9269 54.1898C18.6923 54.1895 18.3966 54.2509 18.236 54.1364C17.9185 53.9102 17.5528 53.6238 17.4324 53.2837C17.2695 52.824 17.5593 52.4127 18.0343 52.2326C18.2762 52.1522 18.5306 52.1152 18.7856 52.1231C22.8946 52.1168 27.0036 52.1156 31.1126 52.1194C31.2623 52.1132 31.4122 52.1189 31.5609 52.1364C31.8181 52.1702 32.0546 52.2939 32.2281 52.4851C32.4015 52.6764 32.5005 52.9227 32.5072 53.1798C32.5038 53.4384 32.3997 53.6857 32.2165 53.8699C32.0334 54.0541 31.7854 54.1609 31.5246 54.1679C30.8422 54.2086 30.1559 54.187 29.4712 54.1909C29.1538 54.1928 28.8363 54.1913 28.4769 54.1913V59.9338C28.6341 59.9573 28.7925 59.9728 28.9514 59.9802C31.22 59.9834 33.4886 59.975 35.757 59.9897C36.1342 59.9922 36.3091 59.8973 36.4229 59.5078C37.1474 57.0296 39.292 55.42 41.8201 55.4147C44.3891 55.4092 46.5351 57.009 47.2827 59.5151C47.3735 59.8195 47.4531 59.9898 47.8184 59.989C52.5695 59.9779 57.3207 59.9741 62.0718 59.9776C62.1726 59.9669 62.2723 59.9481 62.37 59.9215V33.3808ZM78.6576 59.9488C78.6576 58.2212 78.7256 56.5259 78.6288 54.8399C78.5936 53.9784 78.3761 53.1338 77.9904 52.361C76.285 49.1834 74.4756 46.0609 72.7209 42.9091C72.6318 42.7184 72.4854 42.5598 72.3018 42.455C72.1181 42.3502 71.9062 42.3043 71.6952 42.3237C69.4919 42.3414 67.2883 42.3306 65.0848 42.3332C64.9187 42.3334 64.7526 42.3576 64.5588 42.3728V59.9265C65.8361 60.1058 65.8361 60.1058 66.2635 59.0009C67.0751 56.9031 69.1354 55.4459 71.3331 55.4156C73.781 55.3818 75.8448 56.6993 76.746 58.8713C77.2314 60.041 77.2314 60.041 78.6576 59.9488ZM38.3182 60.9755C38.321 62.9817 39.8628 64.5344 41.8576 64.5397C42.7966 64.5355 43.6958 64.1631 44.3588 63.5039C45.0219 62.8447 45.3949 61.9522 45.3965 61.0212C45.3998 60.555 45.3104 60.0927 45.1333 59.6608C44.9562 59.2289 44.695 58.8358 44.3645 58.5041C44.0341 58.1724 43.6409 57.9085 43.2075 57.7276C42.774 57.5467 42.3089 57.4523 41.8386 57.4498C41.3739 57.452 40.9142 57.5449 40.4857 57.7232C40.0572 57.9016 39.6684 58.162 39.3414 58.4894C39.0145 58.8168 38.7559 59.2049 38.5803 59.6315C38.4047 60.0581 38.3157 60.5148 38.3182 60.9755V60.9755ZM75.068 61.0292C75.0753 60.5634 74.9894 60.1008 74.8152 59.6681C74.641 59.2354 74.3821 58.8412 74.0533 58.5083C73.7246 58.1754 73.3326 57.9104 72.8999 57.7287C72.4672 57.5469 72.0025 57.452 71.5326 57.4493C70.594 57.4547 69.6954 57.8271 69.0322 58.4856C68.369 59.1441 67.9947 60.0355 67.9907 60.966C67.9821 61.4325 68.0674 61.896 68.2416 62.3294C68.4158 62.7628 68.6755 63.1575 69.0054 63.4902C69.3353 63.8229 69.7288 64.0871 70.1629 64.2673C70.597 64.4474 71.063 64.5399 71.5336 64.5394C71.9984 64.5399 72.4587 64.4494 72.8882 64.2731C73.3176 64.0968 73.7077 63.8382 74.0361 63.512C74.3645 63.1859 74.6247 62.7987 74.8018 62.3726C74.9789 61.9466 75.0693 61.49 75.068 61.0292V61.0292Z" fill="black"/>
<path d="M26.3768 47.5177C26.3768 45.7638 26.3767 44.0926 26.3769 42.4215C26.3769 42.1882 26.3704 41.9546 26.3812 41.7218C26.4108 41.0809 26.8323 40.6491 27.412 40.6563C27.9826 40.6634 28.4236 41.1101 28.429 41.7443C28.4423 43.3134 28.434 44.8827 28.4343 46.452C28.4343 46.7857 28.4343 47.1193 28.4343 47.5175H29.1813C33.3515 47.5175 37.5217 47.516 41.6919 47.513C42.2786 47.5118 42.694 47.7125 42.8432 48.2974C42.9108 48.5133 42.8964 48.7463 42.8027 48.9524C42.7091 49.1586 42.5427 49.3236 42.3348 49.4166C42.1436 49.5068 41.9335 49.5508 41.7218 49.5449C35.7338 49.5514 29.7458 49.5521 23.7578 49.5471C23.0544 49.5465 22.6342 49.139 22.6407 48.5163C22.6472 47.8954 23.0644 47.5254 23.7859 47.5193C24.6179 47.5123 25.45 47.5177 26.3768 47.5177Z" fill="black"/>
<path d="M19.5451 44.1929C18.4563 44.1931 17.3674 44.1968 16.2786 44.1919C15.3815 44.1878 15.0871 43.9337 15.084 43.1803C15.0807 42.3613 15.309 42.1383 16.2267 42.1349C18.447 42.1267 20.6674 42.1269 22.8877 42.1355C23.6576 42.1383 24.102 42.5149 24.1137 43.1293C24.126 43.7727 23.657 44.1847 22.8756 44.1907C21.7655 44.1992 20.6553 44.1928 19.5451 44.1929Z" fill="black"/>
</g>
<defs>
<filter id="filter0_d_3391_546" x="0" y="0" width="97" height="97" filterUnits="userSpaceOnUse" color-interpolation-filters="sRGB">
<feFlood flood-opacity="0" result="BackgroundImageFix"/>
<feColorMatrix in="SourceAlpha" type="matrix" values="0 0 0 0 0 0 0 0 0 0 0 0 0 0 0 0 0 0 127 0" result="hardAlpha"/>
<feOffset/>
<feGaussianBlur stdDeviation="1.5"/>
<feColorMatrix type="matrix" values="0 0 0 0 0 0 0 0 0 0 0 0 0 0 0 0 0 0 0.25 0"/>
<feBlend mode="normal" in2="BackgroundImageFix" result="effect1_dropShadow_3391_546"/>
<feBlend mode="normal" in="SourceGraphic" in2="effect1_dropShadow_3391_546" result="shape"/>
</filter>
<clipPath id="clip0_3391_546">
<rect width="65.6295" height="35.339" fill="white" transform="translate(15.084 31.2695)"/>
</clipPath>
</defs>
</svg>
