<?xml version="1.0" standalone="no"?>
<!DOCTYPE svg PUBLIC "-//W3C//DTD SVG 20010904//EN"
 "http://www.w3.org/TR/2001/REC-SVG-20010904/DTD/svg10.dtd">
<svg version="1.0" xmlns="http://www.w3.org/2000/svg"
 width="310.000000pt" height="310.000000pt" viewBox="0 0 310.000000 310.000000"
 preserveAspectRatio="xMidYMid meet">
<metadata>
Created by potrace 1.15, written by Peter Selinger 2001-2017
</metadata>
<g transform="translate(0.000000,310.000000) scale(0.100000,-0.100000)"
fill="#000000" stroke="none">
<path d="M775 1680 c-84 -17 -274 -59 -311 -69 -22 -5 -70 -18 -109 -27 -38
-10 -78 -24 -87 -32 -23 -19 -23 -70 -2 -101 16 -22 80 -57 97 -53 4 1 5 -9 3
-23 -3 -14 0 -25 5 -25 5 0 9 -9 9 -20 0 -11 -6 -20 -12 -20 -9 0 -8 -4 2 -10
13 -9 13 -10 0 -10 -13 0 -13 -1 0 -10 10 -6 11 -10 2 -10 -14 0 -12 -21 3
-32 6 -5 5 -8 -4 -8 -7 0 -11 -6 -7 -15 3 -8 0 -15 -7 -15 -8 0 -6 -4 3 -10
13 -9 13 -10 0 -10 -13 0 -13 -1 0 -10 8 -5 10 -10 4 -10 -7 0 -10 -29 -10
-80 0 -44 4 -80 8 -80 4 0 5 -9 3 -19 -3 -15 6 -23 36 -35 32 -13 39 -21 39
-43 0 -33 30 -76 45 -65 20 14 36 54 30 73 -6 17 -1 19 43 19 28 0 103 -7 169
-14 65 -8 163 -20 218 -26 55 -5 182 -19 282 -30 101 -11 189 -20 197 -20 7 0
16 -9 19 -20 6 -25 47 -28 47 -4 0 14 8 16 48 11 26 -3 209 -23 407 -43 366
-37 408 -46 399 -81 -7 -25 23 -93 40 -93 18 0 46 55 46 90 0 16 7 30 16 34 8
3 12 2 9 -4 -11 -17 2 -11 67 33 35 24 69 46 76 51 8 5 15 -2 22 -18 5 -14 16
-26 24 -26 19 0 50 64 42 85 -3 10 4 25 20 40 35 33 52 139 36 222 -32 159
-35 183 -25 233 6 27 6 50 1 50 -4 0 -31 -16 -59 -36 -37 -26 -48 -30 -40 -15
6 11 11 37 11 58 0 27 3 34 10 23 8 -12 10 -12 16 4 5 14 9 15 15 4 7 -10 9
-9 9 5 0 9 7 17 15 17 8 0 15 -9 15 -21 0 -11 5 -17 10 -14 6 4 8 10 5 14 -2
5 4 16 14 25 15 14 24 15 39 7 23 -12 47 8 57 51 9 36 -9 65 -53 84 -43 18
-334 33 -650 33 -106 0 -196 2 -200 5 -5 3 -59 5 -121 5 l-112 0 -11 -30 c-6
-16 -12 -28 -14 -26 -3 2 0 16 6 31 10 28 10 28 -27 22 -21 -3 -46 -5 -55 -6
-10 0 -24 -12 -33 -27 -15 -27 -15 -27 -9 -3 4 14 9 30 11 36 2 7 -7 12 -21
12 -14 0 -26 -5 -26 -10 0 -5 -8 -8 -17 -7 -34 3 -41 -1 -52 -28 -6 -16 -9
-19 -7 -8 2 11 7 28 11 38 7 17 4 18 -27 13 -48 -7 -71 -17 -86 -35 -11 -14
-12 -13 -3 6 14 29 14 43 -2 43 -19 0 -90 -39 -106 -58 -12 -15 -13 -13 -6 13
3 16 12 33 18 37 7 4 8 8 2 9 -5 0 -20 2 -32 5 -12 2 -23 -2 -27 -11 -3 -8
-12 -12 -21 -9 -9 4 -15 1 -15 -7 0 -11 -3 -11 -10 1 -8 12 -10 12 -10 -5 0
-11 -7 -29 -15 -39 -21 -27 -19 -13 4 34 l19 40 -56 2 c-78 2 -104 -2 -121
-15 -12 -9 -13 -9 -7 1 5 9 -3 12 -28 12 -20 0 -36 -4 -36 -9 0 -10 -48 -2
-56 10 -3 5 -8 8 -12 8 -4 -1 -25 -5 -47 -9z m272 -314 c12 0 19 -4 17 -8 -3
-4 1 -8 8 -9 25 -1 -37 -21 -64 -21 -16 0 -28 -2 -28 -6 0 -4 -12 -13 -27 -19
-40 -18 -124 -14 -147 6 -11 9 -16 10 -12 4 9 -16 -10 -17 -19 -2 -6 9 -72 8
-120 -1 -23 -5 -46 1 -40 9 3 6 -10 8 -32 6 l-38 -5 45 15 c94 32 191 44 315
37 66 -3 130 -5 142 -6z m640 -50 c5 -5 -57 -11 -79 -7 -5 0 -8 -4 -8 -9 0 -5
-6 -10 -14 -10 -8 0 -16 -7 -20 -15 -4 -12 -23 -15 -83 -14 -43 0 -85 0 -93
-1 -8 0 -28 2 -45 5 -16 3 -82 8 -145 11 -63 3 -116 7 -118 9 -8 8 174 49 243
54 78 6 351 -11 362 -23z m-1046 -48 c35 -1 68 -3 73 -6 5 -3 30 -6 55 -8 80
-4 78 -3 62 -13 -11 -7 -9 -10 8 -16 20 -6 20 -8 4 -23 -15 -15 -14 -17 8 -23
l24 -7 -25 -2 c-24 -2 -23 -3 5 -10 22 -5 10 -7 -45 -9 -93 -2 -95 -2 -150 4
-87 8 -130 16 -130 26 0 5 -7 9 -15 9 -9 0 -18 7 -21 15 -4 8 -10 12 -15 9 -5
-3 -9 0 -9 6 0 6 -4 9 -8 6 -15 -9 -34 11 -28 30 5 16 15 19 66 18 42 -1 58 2
53 10 -4 6 0 5 9 -2 9 -7 44 -13 79 -14z"/>
</g>
</svg>
