<?xml version="1.0" standalone="no"?>
<!DOCTYPE svg PUBLIC "-//W3C//DTD SVG 20010904//EN"
 "http://www.w3.org/TR/2001/REC-SVG-20010904/DTD/svg10.dtd">
<svg version="1.0" xmlns="http://www.w3.org/2000/svg"
 width="310.000000pt" height="310.000000pt" viewBox="0 0 310.000000 310.000000"
 preserveAspectRatio="xMidYMid meet">
<metadata>
Created by potrace 1.15, written by Peter Selinger 2001-2017
</metadata>
<g transform="translate(0.000000,310.000000) scale(0.100000,-0.100000)"
fill="#000000" stroke="none">
<path d="M2813 2043 c-32 -3 -41 -8 -36 -19 3 -7 0 -14 -6 -14 -6 0 -11 8 -12
18 0 10 -3 12 -6 4 -2 -6 -9 -10 -14 -6 -5 3 -9 1 -9 -5 0 -6 -7 -7 -17 -4
-12 5 -14 3 -8 -7 6 -10 4 -11 -6 -4 -8 5 -23 7 -34 6 -17 -2 -17 -1 -5 7 13
9 13 11 -2 11 -9 0 -18 -5 -20 -12 -3 -7 -9 -8 -18 -3 -8 5 -35 8 -60 6 -64
-3 -676 -50 -730 -56 -25 -2 -83 -7 -130 -10 -47 -3 -164 -13 -260 -21 -96 -8
-236 -19 -310 -25 -151 -10 -465 -36 -581 -47 -75 -8 -78 -7 -195 39 -98 39
-120 45 -122 32 -4 -14 8 -27 31 -35 4 -2 7 -241 7 -532 0 -381 3 -532 11
-542 12 -15 49 -18 86 -8 18 5 21 13 20 57 0 29 1 52 4 52 2 0 23 -14 46 -30
l43 -30 0 -101 c0 -115 11 -135 65 -125 28 6 31 10 45 81 l16 75 104 16 c58
10 268 43 467 74 338 52 364 55 386 40 35 -23 105 -11 109 19 2 14 11 22 28
24 14 2 249 37 524 79 543 83 516 82 516 15 0 -26 5 -35 27 -43 15 -5 36 -9
47 -7 21 3 21 7 26 506 4 399 2 501 -7 497 -7 -2 -13 0 -13 5 0 6 12 10 26 10
14 0 23 -4 19 -10 -3 -5 -1 -10 4 -10 6 0 11 9 11 20 0 11 -6 19 -12 18 -7 -1
-32 -3 -55 -5z m-55 -342 c1 -154 -1 -282 -5 -284 -5 -3 -7 41 -7 96 2 119 -6
204 -16 187 -5 -8 -11 4 -15 28 -4 23 -4 46 -1 51 4 5 2 12 -4 16 -5 3 -10 28
-10 54 0 34 7 58 27 89 15 23 28 42 28 42 0 0 1 -126 3 -279z m-549 197 c1 8
12 2 29 -15 23 -23 28 -35 24 -64 -3 -27 0 -36 12 -36 12 0 13 4 4 20 -8 16
-7 23 6 32 8 7 13 15 9 18 -3 4 -1 7 5 7 5 0 17 3 26 6 13 5 16 -2 16 -42 0
-34 -3 -45 -10 -34 -13 20 -20 9 -26 -39 -3 -27 -1 -41 7 -41 6 0 9 6 6 14 -3
8 0 16 6 19 16 6 21 -277 6 -353 -16 -82 -19 -89 -30 -65 -6 14 -7 6 -3 -25 4
-34 2 -41 -6 -30 -8 11 -9 4 -5 -30 4 -36 3 -39 -4 -18 -5 15 -11 58 -12 95
-2 38 -9 78 -17 91 -11 16 -11 22 -2 22 9 0 11 23 9 84 -2 46 -1 79 3 73 12
-19 9 19 -3 47 -7 14 -16 23 -21 20 -5 -3 -4 -12 3 -20 6 -8 9 -17 5 -21 -3
-3 -6 -1 -6 5 0 16 -37 15 -43 0 -2 -7 -5 64 -5 157 0 100 3 158 8 140 4 -16
8 -24 9 -17z"/>
</g>
</svg>
