<?xml version="1.0" standalone="no"?>
<!DOCTYPE svg PUBLIC "-//W3C//DTD SVG 20010904//EN"
 "http://www.w3.org/TR/2001/REC-SVG-20010904/DTD/svg10.dtd">
<svg version="1.0" xmlns="http://www.w3.org/2000/svg"
 width="700.000000pt" height="700.000000pt" viewBox="0 0 700.000000 700.000000"
 preserveAspectRatio="xMidYMid meet">
<metadata>
Created by potrace 1.15, written by Peter Selinger 2001-2017
</metadata>
<g transform="translate(0.000000,700.000000) scale(0.100000,-0.100000)"
fill="#000000" stroke="none">
<path d="M2370 4184 c14 -1 97 -8 185 -14 88 -7 237 -20 330 -31 94 -10 188
-16 210 -14 30 4 35 3 20 -4 -16 -8 -12 -10 21 -10 23 -1 57 -3 75 -6 26 -4
30 -3 14 4 -18 9 -18 10 7 10 15 1 30 -4 33 -9 3 -6 25 -8 48 -5 32 3 35 2 12
-3 -45 -11 -18 -20 50 -17 33 1 68 -2 78 -7 12 -6 23 -6 31 2 10 7 22 7 41 0
15 -6 31 -8 36 -4 5 3 15 2 21 -3 7 -4 24 -6 38 -5 14 2 48 -4 75 -12 31 -10
51 -12 53 -6 2 6 9 7 15 3 19 -11 157 -19 157 -9 0 5 9 0 20 -12 12 -12 31
-21 43 -21 20 1 20 2 2 6 -49 12 -28 19 54 20 50 0 88 -4 85 -9 -7 -11 33 -10
56 2 13 7 27 5 50 -7 26 -12 34 -13 40 -3 7 11 14 11 39 0 17 -7 41 -10 52 -7
12 3 47 -1 78 -9 30 -7 71 -14 91 -15 l35 -1 -43 -10 c-24 -5 -42 -11 -40 -13
1 -1 39 0 83 3 58 4 73 8 55 13 -16 5 -4 6 30 4 42 -4 49 -2 30 5 -23 8 -22 9
10 7 19 -1 35 -6 35 -12 -1 -5 10 -16 23 -22 30 -16 33 -16 30 -1 -5 20 33 21
48 1 13 -16 13 -16 8 0 -4 12 -1 17 11 17 11 0 15 -5 11 -15 -3 -8 -1 -15 4
-15 5 0 12 10 15 21 5 15 9 18 15 9 5 -7 16 -9 29 -5 13 4 29 1 38 -7 12 -9
15 -9 9 0 -9 15 -5 15 29 2 23 -9 26 -8 22 4 -4 9 -1 13 6 11 51 -15 69 -16
64 -1 -9 22 5 20 26 -4 12 -14 24 -19 41 -14 15 3 29 -1 40 -11 9 -9 16 -12
16 -6 0 5 -4 13 -10 16 -5 3 -10 12 -10 18 0 9 2 9 8 1 4 -6 32 -12 62 -12 30
0 71 -4 90 -7 19 -4 49 -8 65 -10 134 -16 149 -16 135 -6 -12 9 -10 11 13 11
18 0 26 -4 22 -11 -5 -7 23 -10 91 -9 114 2 163 -7 178 -35 24 -44 46 -46 46
-4 0 17 4 38 10 48 9 17 0 19 -143 26 -84 4 -165 8 -182 10 -16 1 -77 5 -135
9 -879 54 -998 61 -1365 86 -496 33 -595 39 -765 50 -212 13 -580 38 -738 50
-106 9 -282 12 -212 4z"/>
<path d="M649 4093 c3 -38 6 -50 10 -35 l6 23 17 -21 c10 -11 13 -20 7 -20 -8
0 -7 -5 2 -16 10 -13 10 -17 -1 -24 -11 -7 -11 -11 -1 -23 9 -11 11 -77 9
-253 -1 -173 2 -258 12 -306 7 -38 16 -68 20 -68 16 0 18 -388 3 -465 -6 -27
-11 -45 -12 -40 -1 10 -21 -14 -21 -26 0 -4 42 -7 93 -8 50 -1 279 -7 507 -13
456 -13 447 -13 607 -7 l113 4 0 287 0 287 -42 6 c-24 3 -200 21 -393 40 -674
68 -860 92 -876 111 -21 25 19 28 230 16 114 -7 403 -15 644 -18 l437 -7 0
265 0 265 -47 6 c-83 11 -1238 97 -1293 97 l-35 0 4 -57z"/>
<path d="M6338 4053 l-58 -15 2 -477 c1 -262 4 -429 5 -372 3 84 7 107 21 118
16 12 16 14 0 27 -18 13 -26 42 -9 31 5 -3 12 -1 16 5 4 6 10 8 15 5 5 -3 11
-1 14 4 3 5 -8 11 -24 15 l-30 6 1 102 c0 92 15 227 18 171 0 -13 5 -23 9 -23
9 0 6 135 -3 150 -3 6 -3 20 1 33 l8 22 7 -25 c4 -14 8 -59 9 -100 2 -60 4
-69 11 -45 7 25 8 23 5 -15 -2 -25 -7 -53 -11 -62 -4 -11 -3 -18 4 -18 6 0 11
12 11 27 0 14 3 23 7 19 10 -9 10 -96 1 -96 -5 0 -7 -15 -7 -32 1 -18 3 -25 6
-15 8 30 23 19 21 -15 -3 -27 -10 -36 -38 -50 -19 -9 -30 -17 -23 -17 6 -1 19
-9 29 -18 16 -16 16 -16 10 5 -5 16 -3 22 7 22 11 0 14 -11 12 -43 -1 -24 -5
-50 -10 -57 -5 -9 -4 -11 3 -6 7 4 12 2 12 -3 0 -10 -14 -15 -32 -12 -4 0 -5
-6 -1 -15 3 -8 12 -13 19 -10 10 4 14 -3 14 -20 0 -24 -1 -24 -17 -9 -15 16
-17 15 -28 -5 -10 -19 -13 -20 -18 -6 -4 9 -2 16 3 16 6 0 10 5 10 10 0 6 -6
10 -14 10 -8 0 -17 6 -20 13 -3 6 -4 -7 -2 -31 3 -31 12 -50 30 -65 21 -19 26
-31 26 -70 0 -31 4 -46 10 -42 7 4 9 -77 6 -256 -3 -144 -2 -267 1 -273 4 -6
8 -33 10 -61 2 -33 0 -45 -6 -36 -11 17 -19 -7 -25 -74 -8 -88 -18 -124 -32
-118 -8 3 -14 0 -14 -7 0 -10 -3 -10 -15 0 -12 10 -15 9 -15 -8 0 -13 -11 -24
-31 -33 l-32 -13 7 -89 c3 -50 6 -127 6 -172 l0 -82 78 -11 c42 -7 83 -12 90
-12 11 0 13 60 12 318 -2 341 -7 462 -21 440 -5 -8 -8 9 -7 42 0 30 3 43 5 28
2 -16 9 -28 15 -28 6 0 8 10 4 23 -7 31 -8 346 0 930 3 268 2 487 -2 486 -5
-1 -35 -8 -66 -16z"/>
<path d="M2162 3322 l3 -719 300 -12 c471 -19 486 -20 564 -26 41 -4 102 -8
135 -9 34 -2 124 -8 201 -14 282 -22 313 -23 319 -6 3 9 6 130 6 269 l0 254
-25 -24 c-13 -14 -34 -25 -46 -25 -35 0 -78 38 -90 80 -10 33 -9 44 8 78 l19
39 -101 11 c-55 6 -246 27 -425 47 -710 76 -776 84 -791 90 -10 4 -15 14 -12
23 4 15 18 16 161 10 86 -4 272 -12 412 -18 140 -6 359 -18 485 -27 127 -8
269 -18 318 -20 l87 -5 0 246 0 246 -20 -20 c-27 -27 -73 -25 -107 4 -25 22
-28 31 -28 85 0 49 -3 61 -16 61 -21 0 -476 34 -944 70 -208 17 -388 30 -398
30 -18 0 -19 -21 -15 -718z"/>
<path d="M3860 3150 c0 -424 -2 -775 -5 -781 -4 -5 29 -9 82 -9 166 0 491 -27
549 -46 16 -5 17 -4 4 6 -12 9 -8 11 19 6 18 -3 51 -6 73 -6 21 0 37 -3 35 -7
-3 -5 14 -9 36 -11 86 -7 134 -12 187 -21 77 -13 103 -13 94 0 -8 13 54 2 73
-13 7 -6 30 -8 50 -6 74 9 416 -12 488 -29 39 -10 85 -16 103 -15 17 2 32 -1
32 -6 0 -5 7 -9 15 -9 13 0 15 51 15 392 l0 392 -97 7 c-54 3 -122 9 -152 13
l-53 6 16 -31 c58 -112 -57 -218 -142 -132 -47 47 -53 109 -14 153 8 9 13 19
11 21 -2 2 -105 14 -229 25 -124 12 -426 44 -673 72 -246 27 -452 49 -457 49
-5 0 -6 8 -3 17 5 12 2 15 -10 10 -9 -3 -17 -3 -17 2 0 13 102 12 347 -4 125
-8 280 -17 343 -20 63 -3 169 -9 235 -15 166 -14 550 -38 730 -46 83 -4 153
-8 158 -11 4 -2 7 148 7 334 l0 339 -60 12 c-33 7 -58 17 -55 22 3 5 -14 9
-37 9 -24 0 -65 3 -93 7 -79 10 -42 -9 43 -23 l77 -13 -77 5 -77 5 6 -55 c5
-50 4 -56 -25 -84 -18 -19 -41 -31 -57 -31 -71 0 -126 73 -108 141 l10 37 -56
6 c-31 3 -126 10 -211 16 -85 6 -173 12 -195 15 -22 2 -114 9 -205 15 -91 6
-246 17 -345 25 -99 8 -223 17 -275 21 -52 3 -98 8 -103 11 -4 2 -7 -343 -7
-767z"/>
<path d="M641 2630 c0 -36 -8 -103 -16 -150 -8 -47 -15 -86 -15 -86 0 -5 97
20 106 27 15 12 39 168 28 179 -5 5 -27 10 -49 12 -38 3 -40 5 -46 43 -5 34
-6 31 -8 -25z"/>
<path d="M4030 2046 l0 -65 83 30 c45 17 94 36 110 41 36 13 34 24 -4 32 -53
10 -77 7 -82 -11 -4 -14 -5 -12 -6 5 -1 17 -7 22 -28 22 -16 0 -38 3 -50 6
-22 6 -23 4 -23 -60z"/>
</g>
</svg>
