<?xml version="1.0" standalone="no"?>
<!DOCTYPE svg PUBLIC "-//W3C//DTD SVG 20010904//EN"
 "http://www.w3.org/TR/2001/REC-SVG-20010904/DTD/svg10.dtd">
<svg version="1.0" xmlns="http://www.w3.org/2000/svg"
 width="700.000000pt" height="700.000000pt" viewBox="0 0 700.000000 700.000000"
 preserveAspectRatio="xMidYMid meet">
<metadata>
Created by potrace 1.15, written by Peter Selinger 2001-2017
</metadata>
<g transform="translate(0.000000,700.000000) scale(0.100000,-0.100000)"
fill="#000000" stroke="none">
<path d="M4008 4736 c-1 -2 -59 -6 -128 -10 -69 -4 -179 -11 -245 -16 -66 -6
-230 -17 -365 -25 -135 -8 -337 -22 -450 -30 -113 -8 -333 -22 -490 -31 -157
-9 -289 -20 -293 -24 -5 -4 1 -110 14 -235 25 -250 26 -245 -38 -245 -17 0
-34 -3 -36 -7 -2 -5 -1 -46 4 -93 4 -47 11 -115 14 -151 l6 -67 -98 -6 c-107
-7 -901 -46 -939 -46 -13 0 -24 4 -24 9 0 9 -157 373 -195 452 -13 27 -22 35
-36 32 -11 -3 -19 -9 -19 -14 0 -5 -6 -9 -14 -9 -7 0 -19 -7 -26 -15 -7 -8
-16 -13 -20 -10 -4 3 -19 -4 -33 -15 -14 -11 -28 -20 -30 -20 -11 0 -172 -113
-202 -141 -16 -15 -41 -30 -55 -34 -14 -3 -34 -13 -44 -20 -19 -14 -17 -20 54
-167 41 -84 102 -221 135 -305 l62 -151 -24 -19 -23 -18 50 -165 c125 -411
170 -719 170 -1167 0 -223 1 -233 19 -233 11 0 28 14 40 34 20 31 21 48 21
269 l0 235 23 5 c49 13 391 57 527 68 140 13 753 19 763 9 3 -3 13 -124 22
-270 19 -320 20 -330 44 -330 40 0 42 36 21 336 l-20 285 21 67 c63 206 103
322 109 322 4 0 10 -66 14 -147 10 -228 15 -263 37 -263 17 0 19 9 19 109 l0
108 40 7 41 6 -6 63 c-9 111 -25 355 -25 394 l0 38 128 22 c70 13 187 34 261
48 74 14 135 24 136 23 1 -2 10 -160 19 -353 9 -192 19 -370 22 -394 l6 -43
44 5 c25 2 46 6 48 8 2 2 -1 117 -6 254 -5 138 -7 260 -6 272 3 18 20 6 117
-86 l114 -107 15 -364 c8 -201 16 -366 17 -368 2 -2 26 0 54 4 l51 7 0 96 c0
53 -5 215 -10 360 -6 145 -9 265 -8 267 2 1 98 16 213 34 116 17 300 44 410
61 110 16 277 41 370 54 94 14 185 28 204 32 l34 6 -6 -142 -6 -142 47 3 47 3
8 135 c4 74 9 140 11 146 3 8 217 44 265 44 7 0 11 -37 11 -115 0 -113 0 -115
24 -121 59 -14 61 -10 64 129 2 119 4 127 22 127 24 0 24 -2 10 -295 -5 -110
-10 -243 -11 -295 l-1 -95 28 3 c76 7 71 -4 78 159 4 82 14 258 22 393 7 135
14 261 14 281 l0 37 48 -5 c58 -5 161 -21 225 -35 l47 -10 0 -58 c0 -57 1 -59
30 -65 42 -9 50 0 50 52 l0 46 41 -7 c22 -3 129 -35 238 -71 l197 -65 -17
-197 c-9 -109 -19 -224 -20 -257 l-4 -59 45 -13 c25 -8 46 -14 46 -14 5 0 16
88 29 243 8 100 20 220 25 267 9 79 19 188 20 218 0 7 5 10 11 6 8 -4 8 0 0
15 -9 17 -8 26 6 48 10 15 13 24 7 21 -6 -4 -9 5 -6 25 2 18 5 64 7 104 2 40
6 77 10 83 3 5 0 10 -7 10 -9 0 -10 2 -1 8 10 6 14 42 28 250 2 34 7 66 9 71
9 13 -73 43 -98 36 -20 -6 48 38 89 56 11 5 39 20 63 34 64 36 196 84 239 88
21 2 49 10 62 17 21 11 23 10 18 -4 -5 -12 1 -11 24 6 16 12 27 28 25 35 -6
16 43 259 78 386 13 48 23 87 21 87 -2 0 -73 9 -157 19 -137 18 -370 45 -723
85 -66 8 -121 13 -123 11 -1 -1 -23 -106 -48 -232 l-46 -230 -87 -13 c-138
-20 -378 -93 -476 -144 -33 -17 -80 -22 -70 -7 8 15 -32 23 -53 12 -24 -13
-29 -64 -38 -403 -5 -195 -9 -248 -20 -252 -8 -3 -14 -2 -14 2 0 5 -47 32
-105 61 -58 29 -108 57 -111 63 -4 6 -10 5 -15 -3 -6 -10 -9 -11 -9 -1 0 6 -7
12 -15 12 -8 0 -15 -4 -15 -9 0 -4 -11 -6 -25 -3 l-25 4 -2 257 c0 141 -1 280
-1 309 0 41 -4 52 -17 52 -9 0 -20 4 -25 9 -10 9 -47 23 -314 118 -112 40
-165 54 -193 51 -33 -3 -38 -1 -39 17 0 11 -2 29 -4 40 -6 31 -36 317 -37 347
-1 23 -18 43 -30 34z m-143 -895 l20 -2 -20 -8 c-16 -7 -9 -10 30 -15 28 -4
70 -11 95 -16 25 -5 88 -14 140 -20 123 -15 313 -48 370 -63 41 -12 45 -16 48
-46 4 -42 -11 -59 -34 -40 -19 16 -55 13 -66 -5 -5 -7 -8 -6 -8 4 0 11 -2 12
-8 3 -5 -8 -51 -15 -127 -19 -68 -4 -123 -11 -127 -18 -4 -6 -10 -8 -13 -4 -4
3 -20 2 -37 -3 -36 -10 -127 -22 -180 -23 -20 -1 -34 -5 -31 -10 3 -5 -11 -7
-31 -4 -21 2 -36 0 -36 -7 0 -5 -5 -3 -10 5 -7 11 -10 12 -10 2 0 -9 -11 -13
-32 -11 -18 1 -42 -2 -53 -7 -11 -5 -68 -9 -127 -8 -74 0 -105 -3 -101 -10 5
-7 2 -7 -8 0 -18 15 -120 8 -131 -9 -6 -9 -8 -9 -8 1 0 7 -3 11 -7 9 -10 -6
-147 -21 -195 -22 -21 0 -38 -4 -38 -8 0 -5 -22 -7 -49 -5 -27 1 -47 0 -44 -4
2 -5 -4 -8 -14 -9 -43 -1 -119 -9 -130 -14 -7 -2 -15 1 -19 7 -4 7 -9 6 -14
-3 -5 -8 -37 -13 -92 -14 -109 -3 -233 -14 -283 -26 -38 -8 -41 -7 -72 29 -34
39 -35 41 -37 187 l-1 59 105 12 c58 7 152 18 210 24 58 6 211 24 340 39 129
16 285 32 345 36 61 3 155 12 210 20 144 21 196 24 280 16z m2005 -147 c36 -4
70 -11 76 -16 6 -4 18 -6 27 -2 8 3 17 1 20 -3 3 -5 20 -8 38 -7 18 1 44 -5
58 -14 14 -10 22 -12 18 -4 -5 6 -4 12 2 12 6 0 11 -4 11 -10 0 -5 7 -7 15 -4
8 4 15 1 15 -5 0 -6 7 -11 17 -11 14 0 15 -14 10 -137 -6 -127 -17 -175 -35
-147 -4 6 -20 13 -37 16 -46 8 -215 45 -375 83 -80 19 -163 37 -185 42 -49 9
-54 10 -57 13 -6 4 -46 11 -83 14 -22 1 -53 8 -68 14 -16 7 -48 12 -72 12 -24
0 -47 5 -50 10 -4 7 -24 8 -51 4 -24 -3 -44 -4 -44 0 0 12 78 44 125 51 28 4
84 20 125 35 76 27 218 57 300 63 47 4 91 2 200 -9z m-3609 -445 c50 -15 56
-43 25 -106 -13 -26 -50 -106 -81 -178 -32 -71 -61 -134 -65 -138 -8 -9 -17
92 -27 299 l-6 134 58 0 c32 0 75 -5 96 -11z"/>
<path d="M6704 3168 l-41 -10 -7 -136 c-3 -74 -6 -163 -6 -197 l0 -63 36 -7
c20 -3 40 -3 44 2 6 7 24 425 17 422 -1 -1 -20 -6 -43 -11z"/>
</g>
</svg>
