<svg id="Layer_1" data-name="Layer 1" xmlns="http://www.w3.org/2000/svg" viewBox="0 0 90 90">
  <g>
    <path d="M70.42,48.2891H65.8632V38.8724A3.0069,3.0069,0,0,0,62.86,35.869H37.9466a3.0069,3.0069,0,0,0-3.0034,3.0034v9.4167H30.3858a2.9712,2.9712,0,0,0-2.9954,2.94V67.93a2.53,2.53,0,0,0,5.0585,0v-5.561H68.3234v5.5441a2.5468,2.5468,0,0,0,5.0927,0V51.2287A2.9714,2.9714,0,0,0,70.42,48.2891ZM28.7766,60.9826V58.9213H72.03v2.0613Zm7.5528-22.11a1.619,1.619,0,0,1,1.6172-1.6172H62.86a1.619,1.619,0,0,1,1.6172,1.6172v9.4167H62.8264V45.6238a2.9713,2.9713,0,0,0-2.9954-2.94H54.2256a2.9713,2.9713,0,0,0-2.9955,2.94v2.6648H49.5764V45.6238a2.9714,2.9714,0,0,0-2.9956-2.94H40.9755a2.9713,2.9713,0,0,0-2.9955,2.94v2.6648H36.3294Zm16.2869,9.4167V45.6238A1.5839,1.5839,0,0,1,54.2256,44.07h5.606A1.5839,1.5839,0,0,1,61.44,45.6238v2.6648Zm-13.25,0V45.6238A1.5839,1.5839,0,0,1,40.9761,44.07h5.6052A1.5839,1.5839,0,0,1,48.19,45.6238v2.6648Zm-8.98,1.3861H70.42A1.5839,1.5839,0,0,1,72.03,51.2287v6.3065H28.7766V51.2287a1.5839,1.5839,0,0,1,1.6092-1.5535Zm.6769,18.2542a1.1436,1.1436,0,0,1-2.2861,0V62.3687h2.2861ZM70.87,69.028a1.14,1.14,0,0,1-1.16-1.1152V62.3687h2.32v5.5441a1.14,1.14,0,0,1-1.16,1.1152Z" style="fill: #3b3838"/>
    <path d="M24.8594,68.5071H23.256V41.4882h4.4968a.7869.7869,0,0,0,.7181-1.1135l-2.8018-6.1269a.7906.7906,0,0,0-.7183-.4609H20.175a.7909.7909,0,0,0-.7182.46l-2.802,6.1264a.7871.7871,0,0,0,.7182,1.1136h1.6479v2.061a1.2693,1.2693,0,0,0-.5946,1.0713,1.2877,1.2877,0,0,0,2.5752,0,1.2684,1.2684,0,0,0-.5944-1.0713v-2.061H21.87v27.02H20.2666a.6931.6931,0,1,0,0,1.3862h4.5928a.6931.6931,0,1,0,0-1.3862ZM19.714,44.7327a.1066.1066,0,0,1-.0987-.113.1262.1262,0,0,1,.0068-.0381.7156.7156,0,0,0,.0925.0068.6863.6863,0,0,0,.0917-.0068.12.12,0,0,1,.0068.0381.1068.1068,0,0,1-.0991.113Zm.8432-9.5605H24.568l2.254,4.929H18.3038Z" style="fill: #3b3838"/>
    <path d="M36.7435,19.5858a.6933.6933,0,0,0-.6932.6931V32.0268a.6934.6934,0,0,0,.6932.6931H64.0659a.6933.6933,0,0,0,.6931-.6931V20.2789a.6931.6931,0,0,0-.6931-.6931ZM52.8256,31.3337l-.0991-.1056L55.963,28.502l3.0241,2.8322Zm-10.5349,0,4.4744-4.4256,4.1586,4.425Zm21.0823,0H61.0148l-4.5536-4.2648a.693.693,0,0,0-.92-.0243l-3.765,3.1712-4.4877-4.775a.6925.6925,0,0,0-.4923-.2184.6765.6765,0,0,0-.5.2l-5.9766,5.9105H37.4365V20.9714H63.3728Z" style="fill: #3b3838"/>
    <path d="M51.7965,27.4174a2.52,2.52,0,1,0-2.3545-2.5145A2.4413,2.4413,0,0,0,51.7965,27.4174Zm0-3.643a1.1416,1.1416,0,1,1-.9683,1.1285A1.0588,1.0588,0,0,1,51.7965,23.7744Z" style="fill: #3b3838"/>
  </g>
</svg>
