<?xml version="1.0" encoding="UTF-8"?>
<svg id="Layer_1" data-name="Layer 1" xmlns="http://www.w3.org/2000/svg" viewBox="0 0 40 30">
  <path d="M35,22c0,1.6569-1.3431,3-3,3H8c-1.6568,0-3-1.3431-3-3V8c0-1.6568,1.3431-3,3-3h24c1.6569,0,3,1.3431,3,3v14Z" style="fill: #d7d7d7;"/>
  <path d="M20.0849,18c-.1823,0-.3645-.072-.5035-.2158l-4.3728-4.5259c-.2781-.2879-.2781-.7547,0-1.0425,.2781-.2878,.729-.2878,1.0072,0l3.8691,4.0048,3.8691-4.0046c.2782-.2878,.7291-.2878,1.0071,0,.2783,.2878,.2783,.7546,0,1.0425l-4.3727,4.5259c-.1391,.1437-.3213,.2156-.5035,.2156Z"/>
</svg>