<svg id="Layer_1" data-name="Layer 1" xmlns="http://www.w3.org/2000/svg" viewBox="0 0 90 90">
  <path d="M16.5217,44.9226c0-3.9814.0081-7.9629-.0086-11.9443a1.2232,1.2232,0,0,1,.7546-1.255Q29.2965,25.732,41.305,19.7a1.5471,1.5471,0,0,1,1.5448.0135q11.906,5.9781,23.8325,11.9153a1.4456,1.4456,0,0,1,.9323,1.4838Q67.581,45.0012,67.6131,56.89a1.38,1.38,0,0,1-.87,1.4137Q54.7635,64.2663,42.8056,70.272a1.5066,1.5066,0,0,1-1.497-.01Q29.2956,64.23,17.2638,58.2349a1.1914,1.1914,0,0,1-.75-1.2032C16.5288,52.9953,16.5217,48.959,16.5217,44.9226Zm26.42,23.2662c.1952-.0852.3277-.1359.454-.199Q54.4077,62.4852,65.424,56.9893a.71.71,0,0,0,.4206-.7759q-.0105-10.7605-.0052-21.5211v-.59c-.2177.096-.3674.1548-.5106.2264Q54.346,39.82,43.3585,45.3016a.7064.7064,0,0,0-.422.7726q.0108,10.7606.0054,21.5212ZM34.1351,41.9994c0,2.74-.0036,5.3806.0034,8.021a.9772.9772,0,0,1-.5438,1.0427.9431.9431,0,0,1-1.1236-.3333c-.904-.9118-1.8227-1.8092-2.7158-2.7314a1.0991,1.0991,0,0,0-.9059-.387c-.7691.0308-1.54.01-2.3106.0088-.9355-.0019-1.2095-.275-1.21-1.2115-.0012-2.77-.0089-5.54.0093-8.3094a.7062.7062,0,0,0-.47-.7446c-2.0393-1-4.0653-2.0266-6.0969-3.042-.1414-.0705-.2921-.1226-.4695-.1961-.0079.1571-.0181.2646-.0181.3721q-.0012,10.9234-.0121,21.8469c-.0009.404.2011.5237.4934.67q10.91,5.4466,21.8152,10.9034c.1753.0877.3552.1662.551.2573a1.05,1.05,0,0,0,.0458-.1932q.0033-11.0612-.01-22.1221a.6776.6776,0,0,0-.3177-.4822c-.7391-.4035-1.5-.7673-2.2537-1.1437C37.14,43.498,35.6843,42.7722,34.1351,41.9994Zm1.0633-1.4577c.2179.1141.3738.1993.5325.2788,1.9643.9841,3.9334,1.9588,5.8893,2.9594a.888.888,0,0,0,.9074-.0078q10.8071-5.4185,21.6233-10.8183c.1693-.0847.3337-.179.5661-.3042-.2316-.1261-.3711-.2075-.5152-.28-2.1787-1.09-4.3626-2.1707-6.5329-3.2777a.9066.9066,0,0,0-.9568.01q-6.93,3.705-13.8744,7.3818c-2.5216,1.34-5.0435,2.6785-7.6393,4.0572ZM19.379,32.6472c2.14,1.0705,4.1616,2.0586,6.1574,3.0965a1.2663,1.2663,0,0,0,1.3487-.0275q10.3662-5.5417,20.7533-11.0447c.1622-.0862.317-.1865.54-.3186-1.9007-.9482-3.7118-1.8293-5.4979-2.7586a1.1617,1.1617,0,0,0-1.2045-.0094Q31.1247,26.7874,20.7572,31.9566C20.3366,32.1669,19.9163,32.378,19.379,32.6472Zm8.8025,4.3572c.1222.08.1921.1351.27.1743,1.5044.757,3.0052,1.5217,4.5216,2.2537a.8235.8235,0,0,0,.64-.0559q10.61-5.6177,21.2064-11.26a4.395,4.395,0,0,0,.3729-.2547c-1.5725-.785-3.0867-1.5239-4.5818-2.3a.9018.9018,0,0,0-.957.0249q-7.95,4.243-15.9113,8.463ZM32.31,48.1162a2.0755,2.0755,0,0,0,.0609-.2778c.0021-2.1273.011-4.2547-.0129-6.3817a.7332.7332,0,0,0-.3551-.5136c-.9864-.5233-1.9927-1.0091-2.9922-1.5077-.6168-.3078-1.2334-.6159-1.8768-.9372v7.3605c.7586,0,1.4747.0307,2.1869-.01a1.5781,1.5781,0,0,1,1.3527.5735c.5034.5572,1.042,1.0822,1.6365,1.6937Z" style="fill: #3b3838"/>
</svg>
