<svg width="97" height="97" viewBox="0 0 97 97" fill="none" xmlns="http://www.w3.org/2000/svg">
<g filter="url(#filter0_d_3391_537)">
<circle cx="48.5" cy="48.5" r="45.5" fill="#F5B75A"/>
</g>
<path d="M26.0215 71.9983H48.4997C49.0637 71.9983 49.5215 71.5406 49.5215 70.9766V48.4983C49.5215 47.9343 49.0637 47.4766 48.4997 47.4766H26.0215C25.4575 47.4766 24.9997 47.9343 24.9997 48.4983V70.9766C24.9997 71.5406 25.4575 71.9983 26.0215 71.9983ZM47.478 69.9548H27.0432V49.52H47.478V69.9548Z" fill="black"/>
<path d="M37.2617 49.5217H59.74C60.304 49.5217 60.7617 49.064 60.7617 48.5V26.0217C60.7617 25.4577 60.304 25 59.74 25H37.2617C36.6977 25 36.24 25.4577 36.24 26.0217V48.5C36.24 49.064 36.6977 49.5217 37.2617 49.5217ZM58.7182 47.4783H38.2835V27.0435H58.7182V47.4783Z" fill="black"/>
<path d="M45.4357 35.2174H51.5662C52.1302 35.2174 52.5879 34.7597 52.5879 34.1957V26.0217C52.5879 25.4577 52.1302 25 51.5662 25H45.4357C44.8717 25 44.414 25.4577 44.414 26.0217V34.1957C44.414 34.7597 44.8717 35.2174 45.4357 35.2174ZM50.5444 33.1739H46.4575V27.0435H50.5444V33.1739Z" fill="black"/>
<path d="M34.1955 57.694H40.3259C40.8899 57.694 41.3477 57.2362 41.3477 56.6722V48.4983C41.3477 47.9343 40.8899 47.4766 40.3259 47.4766H34.1955C33.6315 47.4766 33.1737 47.9343 33.1737 48.4983V56.6722C33.1737 57.2362 33.6315 57.694 34.1955 57.694ZM39.3042 55.6505H35.2172V49.52H39.3042V55.6505Z" fill="black"/>
<path d="M48.5 71.9983H70.9783C71.5423 71.9983 72 71.5406 72 70.9766V48.4983C72 47.9343 71.5423 47.4766 70.9783 47.4766H48.5C47.936 47.4766 47.4783 47.9343 47.4783 48.4983V70.9766C47.4783 71.5406 47.936 71.9983 48.5 71.9983ZM69.9565 69.9548H49.5217V49.52H69.9565V69.9548Z" fill="black"/>
<path d="M56.674 57.694H62.8044C63.3684 57.694 63.8262 57.2362 63.8262 56.6722V48.4983C63.8262 47.9343 63.3684 47.4766 62.8044 47.4766H56.674C56.11 47.4766 55.6523 47.9343 55.6523 48.4983V56.6722C55.6523 57.2362 56.11 57.694 56.674 57.694ZM61.7827 55.6505H57.6957V49.52H61.7827V55.6505Z" fill="black"/>
<defs>
<filter id="filter0_d_3391_537" x="0" y="0" width="97" height="97" filterUnits="userSpaceOnUse" color-interpolation-filters="sRGB">
<feFlood flood-opacity="0" result="BackgroundImageFix"/>
<feColorMatrix in="SourceAlpha" type="matrix" values="0 0 0 0 0 0 0 0 0 0 0 0 0 0 0 0 0 0 127 0" result="hardAlpha"/>
<feOffset/>
<feGaussianBlur stdDeviation="1.5"/>
<feColorMatrix type="matrix" values="0 0 0 0 0 0 0 0 0 0 0 0 0 0 0 0 0 0 0.25 0"/>
<feBlend mode="normal" in2="BackgroundImageFix" result="effect1_dropShadow_3391_537"/>
<feBlend mode="normal" in="SourceGraphic" in2="effect1_dropShadow_3391_537" result="shape"/>
</filter>
</defs>
</svg>
