<svg id="Layer_1" data-name="Layer 1" xmlns="http://www.w3.org/2000/svg" viewBox="0 0 90 90">
  <g>
    <path d="M52.321,36.68a.7571.7571,0,0,0-.7576-.7566H42.0766a.7566.7566,0,1,0,0,1.5132h9.4868A.7571.7571,0,0,0,52.321,36.68Z" style="fill: #3b3838"/>
    <path d="M30.1463,49.8258a2.0084,2.0084,0,0,0,2.0076,2.0047h4.4978a2.0085,2.0085,0,0,0,2.0075-2.0047V45.3551l.7043-.7033a.7571.7571,0,1,0-1.0715-1.07l-.2814.281a1.9991,1.9991,0,0,0-1.3589-.5333H32.154a2.0084,2.0084,0,0,0-2.0076,2.0047v4.4916Zm1.5154-4.4916a.4924.4924,0,0,1,.4922-.4915h4.4978a.4888.4888,0,0,1,.2851.0924l-2.33,2.3264-.5371-.5362a.7571.7571,0,0,0-1.0715,1.07l1.0729,1.0715a.7583.7583,0,0,0,1.0714,0l2.0012-1.9984v2.9575a.4924.4924,0,0,1-.4923.4914H32.154a.4923.4923,0,0,1-.4922-.4914V45.3342Z" style="fill: #3b3838"/>
    <path d="M42.0766,46.8242a.7567.7567,0,1,0,0,1.5133h3.4663a.7567.7567,0,1,0,0-1.5133Z" style="fill: #3b3838"/>
    <path d="M30.1463,60.7266a2.0085,2.0085,0,0,0,2.0076,2.0048h4.4978a2.0085,2.0085,0,0,0,2.0075-2.0048V56.2351A2.0083,2.0083,0,0,0,36.6517,54.23H32.1539a2.0084,2.0084,0,0,0-2.0076,2.0047Zm1.5154-4.4916a.4924.4924,0,0,1,.4922-.4915h4.4978a.4925.4925,0,0,1,.4922.4915v4.4915a.4924.4924,0,0,1-.4922.4914H32.1539a.4923.4923,0,0,1-.4922-.4914Z" style="fill: #3b3838"/>
    <path d="M66.9666,36.8735a3.2594,3.2594,0,0,0-5.7485-2.0967V25.5789a3.121,3.121,0,0,0-3.12-3.1153H50.889V20.9769a1.8063,1.8063,0,0,0-1.8055-1.8031H35.1682a1.8065,1.8065,0,0,0-1.8057,1.8031v1.4867h-7.21a3.121,3.121,0,0,0-3.12,3.1153V67.711a3.121,3.121,0,0,0,3.12,3.1152H58.0986a3.121,3.121,0,0,0,3.12-3.1152V47.58a.7577.7577,0,0,0-1.5154,0V67.711a1.6049,1.6049,0,0,1-1.6042,1.602H26.1528a1.6049,1.6049,0,0,1-1.6042-1.602V25.5789a1.6049,1.6049,0,0,1,1.6042-1.602h4.4593v1.5775a3.2352,3.2352,0,0,0,3.7569,3.1431l6.99-1.242a4.3306,4.3306,0,0,1,1.5182,0l7.0059,1.2431A3.2473,3.2473,0,0,0,53.64,25.5551V23.9769h3.0448V39.3048L44.0217,51.9505a5.7123,5.7123,0,0,0-1.6571,2.6437L41.347,58.28c-.0283.322-.0055,1.0673.9318.9306l3.69-1.016a5.8117,5.8117,0,0,0,2.6482-1.653l8.0672-8.0566V66.1069a.191.191,0,0,1-.191.1907H27.7591a.191.191,0,0,1-.1909-.1907V26.7889a.7577.7577,0,0,0-1.5154,0v39.318a1.7072,1.7072,0,0,0,1.7063,1.704H56.4933A1.7073,1.7073,0,0,0,58.2,66.1069V46.9715l7.8145-7.8036h0A3.3827,3.3827,0,0,0,66.9666,36.8735ZM34.8778,20.9769a.2905.2905,0,0,1,.29-.29H49.0835a.29.29,0,0,1,.29.29v1.4867H34.8778ZM52.1241,25.555a1.7144,1.7144,0,0,1-1.9758,1.6532l-7.0059-1.2429a5.843,5.843,0,0,0-2.0488,0l-6.99,1.2421a1.7147,1.7147,0,0,1-1.9761-1.6532V23.9771H52.1241ZM64.9424,38.0975,62.704,40.333l-2.4532-2.45,2.2386-2.2356a1.7334,1.7334,0,0,1,2.453,2.45ZM48.0811,54.9364l-2.4532-2.45L59.1793,38.9533l2.4532,2.45ZM58.2,23.982a1.6038,1.6038,0,0,1,1.5033,1.597V36.29L58.2,37.7915ZM43.8254,54.9965A3.8,3.8,0,0,1,44.57,53.57l2.4253,2.422c-.5686.6472-2.9574,1.1441-3.8326,1.4053Z" style="fill: #3b3838"/>
    <path d="M39.3633,32.6215a.7582.7582,0,0,0-1.0714,0l-.313.3126a1.9983,1.9983,0,0,0-1.3272-.5047H32.1539a2.0084,2.0084,0,0,0-2.0076,2.0048v4.4915A2.0084,2.0084,0,0,0,32.1539,40.93h4.4978a2.0084,2.0084,0,0,0,2.0075-2.0047V34.4342c0-.0127-.0017-.025-.0019-.0375l.7062-.7052A.7558.7558,0,0,0,39.3633,32.6215Zm-2.2194,6.3042a.4925.4925,0,0,1-.4922.4915H32.1539a.4924.4924,0,0,1-.4922-.4915V34.4342a.4924.4924,0,0,1,.4922-.4916h4.4978a.487.487,0,0,1,.2478.0693l-2.2926,2.2894-.537-.5363a.7571.7571,0,1,0-1.0715,1.07l1.0729,1.0714a.7584.7584,0,0,0,1.0715,0l2.0011-1.9984Z" style="fill: #3b3838"/>
  </g>
</svg>
