<svg width="18" height="18" viewBox="0 0 18 18" fill="none" xmlns="http://www.w3.org/2000/svg">
<g clip-path="url(#clip0_191_2251)">
<path d="M17.4492 -0.635925C17.397 -0.765964 17.2967 -0.870867 17.1691 -0.92881C17.0415 -0.986753 16.8965 -0.993275 16.7642 -0.947019C16.6319 -0.900763 16.5226 -0.80529 16.4589 -0.680463C16.3952 -0.555636 16.3821 -0.411064 16.4223 -0.276825C17.2584 2.12618 15.5988 3.92078 14.3334 4.88198L13.8222 4.14938C13.6503 3.90368 13.266 3.69938 12.9672 3.69578L10.098 3.70838C9.74754 3.71896 9.40642 3.82407 9.11074 4.01258L0.656143 9.94087C0.459488 10.0793 0.32568 10.2899 0.284016 10.5268C0.242351 10.7636 0.296226 11.0073 0.433843 11.2045L4.27594 16.7017C4.56394 17.1112 5.02384 17.0617 5.43424 16.7755L13.8888 10.8463C14.1318 10.6744 14.4126 10.3036 14.5116 10.0201L15.4098 7.18958C15.5088 6.90698 15.4485 6.47588 15.2766 6.23018L14.9652 5.78378C16.6644 4.48148 18.4284 2.18018 17.4492 -0.635925ZM13.5153 7.78627C13.3596 7.8953 13.1839 7.97257 12.9983 8.01367C12.8126 8.05476 12.6207 8.05888 12.4335 8.02578C12.2463 7.99268 12.0674 7.92302 11.9071 7.82077C11.7468 7.71852 11.6083 7.58569 11.4993 7.42987C11.2788 7.11456 11.1923 6.72462 11.259 6.34564C11.3256 5.96666 11.5399 5.62961 11.8548 5.40847C12.1017 5.23551 12.3965 5.144 12.6979 5.14675C12.9993 5.14949 13.2924 5.24635 13.536 5.42378C13.2912 5.57138 13.1229 5.65778 13.0914 5.67128C12.9799 5.72447 12.8897 5.81398 12.8357 5.92514C12.7816 6.0363 12.7669 6.16252 12.794 6.28311C12.8211 6.4037 12.8884 6.51152 12.9848 6.58889C13.0811 6.66626 13.2009 6.7086 13.3245 6.70897C13.4019 6.70897 13.4811 6.69097 13.5558 6.65587C13.7304 6.57307 13.9176 6.47498 14.1129 6.35887C14.1579 6.62893 14.1256 6.90618 14.0199 7.15871C13.9142 7.41124 13.7393 7.62878 13.5153 7.78627Z" fill="#DD803C"/>
</g>
<defs>
<clipPath id="clip0_191_2251">
<rect width="18" height="18" fill="white"/>
</clipPath>
</defs>
</svg>
