<svg width="18" height="18" viewBox="0 0 18 18" fill="none" xmlns="http://www.w3.org/2000/svg">
<path d="M7.5 2.25H3C2.80109 2.25 2.61032 2.32902 2.46967 2.46967C2.32902 2.61032 2.25 2.80109 2.25 3V7.5C2.25 7.69891 2.32902 7.88968 2.46967 8.03033C2.61032 8.17098 2.80109 8.25 3 8.25H7.5C7.69891 8.25 7.88968 8.17098 8.03033 8.03033C8.17098 7.88968 8.25 7.69891 8.25 7.5V3C8.25 2.80109 8.17098 2.61032 8.03033 2.46967C7.88968 2.32902 7.69891 2.25 7.5 2.25ZM15 9.75H10.5C10.3011 9.75 10.1103 9.82902 9.96967 9.96967C9.82902 10.1103 9.75 10.3011 9.75 10.5V15C9.75 15.1989 9.82902 15.3897 9.96967 15.5303C10.1103 15.671 10.3011 15.75 10.5 15.75H15C15.1989 15.75 15.3897 15.671 15.5303 15.5303C15.671 15.3897 15.75 15.1989 15.75 15V10.5C15.75 10.3011 15.671 10.1103 15.5303 9.96967C15.3897 9.82902 15.1989 9.75 15 9.75ZM12.75 2.25C11.0955 2.25 9.75 3.5955 9.75 5.25C9.75 6.9045 11.0955 8.25 12.75 8.25C14.4045 8.25 15.75 6.9045 15.75 5.25C15.75 3.5955 14.4045 2.25 12.75 2.25ZM5.25 9.75C3.5955 9.75 2.25 11.0955 2.25 12.75C2.25 14.4045 3.5955 15.75 5.25 15.75C6.9045 15.75 8.25 14.4045 8.25 12.75C8.25 11.0955 6.9045 9.75 5.25 9.75Z" fill="#DD803C"/>
</svg>
