<svg width="18" height="18" viewBox="0 0 18 18" fill="none" xmlns="http://www.w3.org/2000/svg">
<path d="M3.75 16.5C3.3375 16.5 2.98425 16.353 2.69025 16.059C2.39625 15.765 2.2495 15.412 2.25 15V6.54375C2.025 6.40625 1.84375 6.228 1.70625 6.009C1.56875 5.79 1.5 5.537 1.5 5.25V3C1.5 2.5875 1.647 2.23425 1.941 1.94025C2.235 1.64625 2.588 1.4995 3 1.5H15C15.4125 1.5 15.7657 1.647 16.0597 1.941C16.3538 2.235 16.5005 2.588 16.5 3V5.25C16.5 5.5375 16.4313 5.7905 16.2938 6.009C16.1562 6.2275 15.975 6.40575 15.75 6.54375V15C15.75 15.4125 15.603 15.7658 15.309 16.0598C15.015 16.3538 14.662 16.5005 14.25 16.5H3.75ZM3 5.25H15V3H3V5.25ZM6.75 10.5H11.25V9H6.75V10.5Z" fill="#DD803C"/>
</svg>
