<svg width="18" height="18" viewBox="0 0 18 18" fill="none" xmlns="http://www.w3.org/2000/svg">
<path d="M8.5 17L6 14.5714H2.66667C2.20833 14.5714 1.81583 14.4128 1.48917 14.0954C1.1625 13.7781 0.999446 13.3971 1 12.9524V1.61905C1 1.17381 1.16333 0.792525 1.49 0.475192C1.81667 0.157858 2.20889 -0.000538308 2.66667 1.3744e-06H14.3333C14.7917 1.3744e-06 15.1842 0.158668 15.5108 0.476001C15.8375 0.793335 16.0006 1.17435 16 1.61905V12.9524C16 13.3976 15.8367 13.7789 15.51 14.0962C15.1833 14.4136 14.7911 14.572 14.3333 14.5714H11L8.5 17ZM8.5 8.09524C9.30556 8.09524 9.99306 7.81865 10.5625 7.26548C11.1319 6.7123 11.4167 6.04445 11.4167 5.26191C11.4167 4.47937 11.1319 3.81151 10.5625 3.25833C9.99306 2.70516 9.30556 2.42857 8.5 2.42857C7.69444 2.42857 7.00694 2.70516 6.4375 3.25833C5.86806 3.81151 5.58333 4.47937 5.58333 5.26191C5.58333 6.04445 5.86806 6.7123 6.4375 7.26548C7.00694 7.81865 7.69444 8.09524 8.5 8.09524ZM2.66667 12.9524H14.3333V12.0214C13.5833 11.3064 12.7117 10.7432 11.7183 10.332C10.725 9.92071 9.65222 9.71483 8.5 9.71429C7.34722 9.71429 6.27417 9.92018 5.28083 10.332C4.2875 10.7437 3.41611 11.3069 2.66667 12.0214V12.9524Z" fill="#DD803C"/>
</svg>
