<svg width="31" height="31" viewBox="0 0 31 31" fill="none" xmlns="http://www.w3.org/2000/svg">
<path d="M23.554 2.73529H8.05404C7.36889 2.73529 6.71181 3.00746 6.22734 3.49193C5.74287 3.9764 5.4707 4.63348 5.4707 5.31862V25.9853C5.4707 26.6704 5.74287 27.3275 6.22734 27.812C6.71181 28.2965 7.36889 28.5686 8.05404 28.5686H23.554C24.2392 28.5686 24.8963 28.2965 25.3807 27.812C25.8652 27.3275 26.1374 26.6704 26.1374 25.9853V5.31862C26.1374 4.63348 25.8652 3.9764 25.3807 3.49193C24.8963 3.00746 24.2392 2.73529 23.554 2.73529Z" stroke="#7C7C7C" stroke-width="2" stroke-linecap="round" stroke-linejoin="round"/>
<path d="M11.9289 18.9951L12.3784 18.6851C14.2707 17.3766 17.3384 17.3766 19.2294 18.6851L19.6789 18.9951M10.6372 7.37006H10.6501M20.9705 7.37006H20.9835M15.8039 7.37006H15.8168M15.8039 12.5367H15.8168M20.9705 12.5367H20.9835M10.6372 12.5367H10.6501M13.2205 26.7451V18.3492M18.3872 18.3492V26.7451" stroke="#7C7C7C" stroke-width="2" stroke-linecap="round" stroke-linejoin="round"/>
</svg>
