<svg width="13" height="13" viewBox="0 0 13 13" fill="none" xmlns="http://www.w3.org/2000/svg">
<path d="M11.2734 2.4375V7.71875C11.2734 7.9073 11.1985 8.08813 11.0652 8.22146C10.9319 8.35478 10.7511 8.42969 10.5625 8.42969H4.79832L5.49656 9.12844C5.5265 9.15633 5.55051 9.18997 5.56716 9.22734C5.58381 9.26472 5.59277 9.30506 5.59349 9.34598C5.59421 9.38689 5.58669 9.42752 5.57136 9.46546C5.55604 9.5034 5.53323 9.53786 5.5043 9.5668C5.47536 9.59573 5.4409 9.61854 5.40296 9.63386C5.36502 9.64919 5.32439 9.65671 5.28348 9.65599C5.24256 9.65527 5.20222 9.64631 5.16484 9.62966C5.12747 9.61301 5.09383 9.589 5.06594 9.55906L3.84719 8.34031C3.79013 8.28318 3.75808 8.20574 3.75808 8.125C3.75808 8.04426 3.79013 7.96682 3.84719 7.90969L5.06594 6.69094C5.1237 6.63712 5.20009 6.60782 5.27902 6.60921C5.35796 6.6106 5.43327 6.64258 5.4891 6.6984C5.54492 6.75423 5.5769 6.82954 5.57829 6.90848C5.57968 6.98741 5.55038 7.0638 5.49656 7.12156L4.79832 7.82031H10.5625C10.5894 7.82031 10.6153 7.80961 10.6343 7.79057C10.6534 7.77152 10.6641 7.74569 10.6641 7.71875V2.4375C10.6641 2.41056 10.6534 2.38473 10.6343 2.36568C10.6153 2.34664 10.5894 2.33594 10.5625 2.33594H4.875C4.84806 2.33594 4.82223 2.34664 4.80318 2.36568C4.78414 2.38473 4.77344 2.41056 4.77344 2.4375V2.84375C4.77344 2.92456 4.74134 3.00206 4.6842 3.0592C4.62706 3.11634 4.54956 3.14844 4.46875 3.14844C4.38794 3.14844 4.31044 3.11634 4.2533 3.0592C4.19616 3.00206 4.16406 2.92456 4.16406 2.84375V2.4375C4.16406 2.24895 4.23896 2.06812 4.37229 1.93479C4.50562 1.80146 4.68645 1.72656 4.875 1.72656H10.5625C10.7511 1.72656 10.9319 1.80146 11.0652 1.93479C11.1985 2.06812 11.2734 2.24895 11.2734 2.4375ZM8.53125 9.85156C8.45044 9.85156 8.37294 9.88366 8.3158 9.9408C8.25866 9.99794 8.22656 10.0754 8.22656 10.1562V10.5625C8.22656 10.5894 8.21586 10.6153 8.19682 10.6343C8.17777 10.6534 8.15194 10.6641 8.125 10.6641H2.4375C2.41056 10.6641 2.38473 10.6534 2.36568 10.6343C2.34664 10.6153 2.33594 10.5894 2.33594 10.5625V5.28125C2.33594 5.25431 2.34664 5.22848 2.36568 5.20943C2.38473 5.19039 2.41056 5.17969 2.4375 5.17969H8.20168L7.50344 5.87844C7.4735 5.90633 7.44949 5.93997 7.43284 5.97734C7.41619 6.01472 7.40723 6.05506 7.40651 6.09598C7.40579 6.13689 7.41331 6.17752 7.42864 6.21546C7.44396 6.2534 7.46677 6.28786 7.4957 6.3168C7.52464 6.34573 7.5591 6.36854 7.59704 6.38386C7.63498 6.39919 7.67561 6.40671 7.71652 6.40599C7.75744 6.40527 7.79778 6.39631 7.83516 6.37966C7.87253 6.36301 7.90617 6.339 7.93406 6.30906L9.15281 5.09031C9.20987 5.03318 9.24192 4.95574 9.24192 4.875C9.24192 4.79426 9.20987 4.71682 9.15281 4.65969L7.93406 3.44094C7.8763 3.38712 7.79991 3.35782 7.72098 3.35921C7.64204 3.3606 7.56673 3.39258 7.5109 3.4484C7.45508 3.50423 7.4231 3.57954 7.42171 3.65848C7.42032 3.73741 7.44962 3.8138 7.50344 3.87156L8.20168 4.57031H2.4375C2.24895 4.57031 2.06812 4.64521 1.93479 4.77854C1.80146 4.91187 1.72656 5.0927 1.72656 5.28125V10.5625C1.72656 10.7511 1.80146 10.9319 1.93479 11.0652C2.06812 11.1985 2.24895 11.2734 2.4375 11.2734H8.125C8.31355 11.2734 8.49438 11.1985 8.62771 11.0652C8.76103 10.9319 8.83594 10.7511 8.83594 10.5625V10.1562C8.83594 10.0754 8.80384 9.99794 8.7467 9.9408C8.68956 9.88366 8.61206 9.85156 8.53125 9.85156Z" fill="#808080"/>
</svg>
