<svg width="13" height="13" viewBox="0 0 13 13" fill="none" xmlns="http://www.w3.org/2000/svg">
<path d="M12.163 6.33063C11.6851 5.09467 10.8556 4.02581 9.77696 3.25616C8.69829 2.48651 7.41774 2.0498 6.09358 2C4.76941 2.0498 3.48886 2.48651 2.41019 3.25616C1.33152 4.02581 0.502018 5.09467 0.0242022 6.33063C-0.00806739 6.41988 -0.00806739 6.51762 0.0242022 6.60687C0.502018 7.84283 1.33152 8.91169 2.41019 9.68134C3.48886 10.451 4.76941 10.8877 6.09358 10.9375C7.41774 10.8877 8.69829 10.451 9.77696 9.68134C10.8556 8.91169 11.6851 7.84283 12.163 6.60687C12.1952 6.51762 12.1952 6.41988 12.163 6.33063ZM6.09358 10.125C3.94045 10.125 1.66545 8.52844 0.840765 6.46875C1.66545 4.40906 3.94045 2.8125 6.09358 2.8125C8.2467 2.8125 10.5217 4.40906 11.3464 6.46875C10.5217 8.52844 8.2467 10.125 6.09358 10.125Z" fill="#808080"/>
<path d="M6.09375 4.03125C5.61166 4.03125 5.14039 4.17421 4.73955 4.44204C4.3387 4.70988 4.02628 5.09056 3.84179 5.53596C3.65731 5.98135 3.60904 6.47145 3.70309 6.94428C3.79714 7.41711 4.02929 7.85143 4.37018 8.19232C4.71107 8.53321 5.14539 8.76536 5.61822 8.85941C6.09105 8.95347 6.58115 8.90519 7.02654 8.72071C7.47194 8.53622 7.85262 8.2238 8.12046 7.82295C8.38829 7.42211 8.53125 6.95084 8.53125 6.46875C8.53125 5.82228 8.27444 5.2023 7.81732 4.74518C7.3602 4.28806 6.74022 4.03125 6.09375 4.03125ZM6.09375 8.09375C5.77236 8.09375 5.45818 7.99845 5.19095 7.81989C4.92372 7.64133 4.71544 7.38754 4.59245 7.09061C4.46945 6.79368 4.43727 6.46695 4.49997 6.15173C4.56268 5.83651 4.71744 5.54696 4.9447 5.3197C5.17196 5.09244 5.46151 4.93767 5.77673 4.87497C6.09195 4.81227 6.41868 4.84445 6.71561 4.96745C7.01254 5.09044 7.26633 5.29872 7.44489 5.56595C7.62345 5.83318 7.71875 6.14736 7.71875 6.46875C7.71875 6.89973 7.54755 7.31305 7.2428 7.6178C6.93805 7.92254 6.52473 8.09375 6.09375 8.09375Z" fill="#808080"/>
</svg>
