<svg width="17" height="17" viewBox="0 0 17 17" fill="none" xmlns="http://www.w3.org/2000/svg">
<path d="M9.10714 7.89286H12.1429V9.10714H9.10714V12.1429H7.89286V9.10714H4.85714V7.89286H7.89286V4.85714H9.10714V7.89286ZM8.5 0C9.28423 0 10.0368 0.10119 10.7578 0.303571C11.4788 0.505952 12.1555 0.790551 12.7879 1.15737C13.4204 1.52418 13.9927 1.96689 14.505 2.48549C15.0173 3.00409 15.46 3.57645 15.8331 4.20257C16.2063 4.82868 16.494 5.50539 16.6964 6.2327C16.8988 6.96001 17 7.71577 17 8.5C17 9.28423 16.8988 10.0368 16.6964 10.7578C16.494 11.4788 16.2094 12.1555 15.8426 12.7879C15.4758 13.4204 15.0331 13.9927 14.5145 14.505C13.9959 15.0173 13.4235 15.46 12.7974 15.8331C12.1713 16.2063 11.4946 16.494 10.7673 16.6964C10.04 16.8988 9.28423 17 8.5 17C7.71577 17 6.96317 16.8988 6.24219 16.6964C5.52121 16.494 4.84449 16.2094 4.21205 15.8426C3.57961 15.4758 3.00725 15.0331 2.49498 14.5145C1.9827 13.9959 1.53999 13.4235 1.16685 12.7974C0.793713 12.1713 0.505952 11.4946 0.303571 10.7673C0.10119 10.04 0 9.28423 0 8.5C0 7.71577 0.10119 6.96317 0.303571 6.24219C0.505952 5.52121 0.790551 4.84449 1.15737 4.21205C1.52418 3.57961 1.96689 3.00725 2.48549 2.49498C3.00409 1.9827 3.57645 1.53999 4.20257 1.16685C4.82868 0.793713 5.50539 0.505952 6.2327 0.303571C6.96001 0.10119 7.71577 0 8.5 0ZM8.5 15.7857C9.17039 15.7857 9.81548 15.7003 10.4353 15.5296C11.0551 15.3588 11.6337 15.1122 12.1713 14.7896C12.7089 14.4671 13.2022 14.0876 13.6512 13.6512C14.1003 13.2148 14.4797 12.7247 14.7896 12.1808C15.0995 11.6369 15.343 11.0551 15.5201 10.4353C15.6972 9.81548 15.7857 9.17039 15.7857 8.5C15.7857 7.82961 15.7003 7.18452 15.5296 6.56473C15.3588 5.94494 15.1122 5.36626 14.7896 4.82868C14.4671 4.29111 14.0876 3.79781 13.6512 3.34877C13.2148 2.89974 12.7247 2.52028 12.1808 2.21038C11.6369 1.90048 11.0551 1.65699 10.4353 1.47991C9.81548 1.30283 9.17039 1.21429 8.5 1.21429C7.82961 1.21429 7.18452 1.29967 6.56473 1.47042C5.94494 1.64118 5.36626 1.88783 4.82868 2.21038C4.29111 2.53292 3.79781 2.91239 3.34877 3.34877C2.89974 3.78516 2.52028 4.2753 2.21038 4.8192C1.90048 5.3631 1.65699 5.94494 1.47991 6.56473C1.30283 7.18452 1.21429 7.82961 1.21429 8.5C1.21429 9.17039 1.29967 9.81548 1.47042 10.4353C1.64118 11.0551 1.88783 11.6337 2.21038 12.1713C2.53292 12.7089 2.91239 13.2022 3.34877 13.6512C3.78516 14.1003 4.2753 14.4797 4.8192 14.7896C5.3631 15.0995 5.94494 15.343 6.56473 15.5201C7.18452 15.6972 7.82961 15.7857 8.5 15.7857Z" fill="white"/>
</svg>
