<svg width="16" height="16" viewBox="0 0 16 16" fill="none" xmlns="http://www.w3.org/2000/svg">
<path d="M6.5715 3.42878H9.42864C9.42864 3.0499 9.27813 2.68654 9.01022 2.41863C8.74231 2.15072 8.37895 2.00021 8.00007 2.00021C7.62119 2.00021 7.25783 2.15072 6.98992 2.41863C6.72201 2.68654 6.5715 3.0499 6.5715 3.42878ZM5.71436 3.42878C5.71436 2.82257 5.95517 2.24119 6.38383 1.81254C6.81248 1.38388 7.39386 1.14307 8.00007 1.14307C8.60628 1.14307 9.18766 1.38388 9.61631 1.81254C10.045 2.24119 10.2858 2.82257 10.2858 3.42878H13.8572C13.9709 3.42878 14.0799 3.47393 14.1603 3.55431C14.2406 3.63468 14.2858 3.74369 14.2858 3.85735C14.2858 3.97102 14.2406 4.08003 14.1603 4.1604C14.0799 4.24077 13.9709 4.28592 13.8572 4.28592H13.1086L12.4132 12.6305C12.3626 13.2375 12.0857 13.8034 11.6375 14.2159C11.1892 14.6283 10.6024 14.8573 9.99321 14.8574H6.00693C5.39778 14.8573 4.81089 14.6283 4.36264 14.2159C3.9144 13.8034 3.63752 13.2375 3.58693 12.6305L2.8915 4.28592H2.14293C2.02926 4.28592 1.92025 4.24077 1.83988 4.1604C1.75951 4.08003 1.71436 3.97102 1.71436 3.85735C1.71436 3.74369 1.75951 3.63468 1.83988 3.55431C1.92025 3.47393 2.02926 3.42878 2.14293 3.42878H5.71436ZM4.44121 12.5591C4.47389 12.9519 4.653 13.3181 4.94301 13.585C5.23302 13.8519 5.61276 14.0001 6.00693 14.0002H9.99321C10.3874 14.0001 10.7671 13.8519 11.0571 13.585C11.3471 13.3181 11.5262 12.9519 11.5589 12.5591L12.2492 4.28592H3.7515L4.44121 12.5591ZM6.71435 6.28592C6.82802 6.28592 6.93703 6.33108 7.0174 6.41145C7.09777 6.49182 7.14293 6.60083 7.14293 6.7145V11.5716C7.14293 11.6853 7.09777 11.7943 7.0174 11.8747C6.93703 11.9551 6.82802 12.0002 6.71435 12.0002C6.60069 12.0002 6.49168 11.9551 6.41131 11.8747C6.33094 11.7943 6.28578 11.6853 6.28578 11.5716V6.7145C6.28578 6.60083 6.33094 6.49182 6.41131 6.41145C6.49168 6.33108 6.60069 6.28592 6.71435 6.28592ZM9.71435 6.7145C9.71435 6.60083 9.6692 6.49182 9.58883 6.41145C9.50846 6.33108 9.39945 6.28592 9.28578 6.28592C9.17212 6.28592 9.06311 6.33108 8.98274 6.41145C8.90237 6.49182 8.85721 6.60083 8.85721 6.7145V11.5716C8.85721 11.6853 8.90237 11.7943 8.98274 11.8747C9.06311 11.9551 9.17212 12.0002 9.28578 12.0002C9.39945 12.0002 9.50846 11.9551 9.58883 11.8747C9.6692 11.7943 9.71435 11.6853 9.71435 11.5716V6.7145Z" fill="#6C6C6C"/>
</svg>
