<svg width="17" height="16" viewBox="0 0 17 16" fill="none" xmlns="http://www.w3.org/2000/svg">
<path d="M7.0293 3.42854H9.97047C9.97047 3.04966 9.81554 2.68629 9.53975 2.41838C9.26396 2.15047 8.88991 1.99997 8.49989 1.99997C8.10986 1.99997 7.73581 2.15047 7.46002 2.41838C7.18423 2.68629 7.0293 3.04966 7.0293 3.42854ZM6.14694 3.42854C6.14694 2.82233 6.39484 2.24095 6.8361 1.81229C7.27737 1.38364 7.87585 1.14282 8.49989 1.14282C9.12392 1.14282 9.7224 1.38364 10.1637 1.81229C10.6049 2.24095 10.8528 2.82233 10.8528 3.42854H14.5293C14.6463 3.42854 14.7585 3.47369 14.8413 3.55406C14.924 3.63443 14.9705 3.74344 14.9705 3.85711C14.9705 3.97077 14.924 4.07978 14.8413 4.16015C14.7585 4.24053 14.6463 4.28568 14.5293 4.28568H13.7587L13.0428 12.6303C12.9907 13.2373 12.7057 13.8032 12.2443 14.2156C11.7829 14.6281 11.1787 14.8571 10.5517 14.8571H6.44812C5.82106 14.8571 5.21691 14.6281 4.75548 14.2156C4.29404 13.8032 4.00903 13.2373 3.95694 12.6303L3.24106 4.28568H2.47047C2.35347 4.28568 2.24125 4.24053 2.15851 4.16015C2.07578 4.07978 2.0293 3.97077 2.0293 3.85711C2.0293 3.74344 2.07578 3.63443 2.15851 3.55406C2.24125 3.47369 2.35347 3.42854 2.47047 3.42854H6.14694ZM4.83636 12.5588C4.87 12.9516 5.05437 13.3178 5.35291 13.5847C5.65146 13.8517 6.04237 13.9999 6.44812 14H10.5517C10.9574 13.9999 11.3483 13.8517 11.6469 13.5847C11.9454 13.3178 12.1298 12.9516 12.1634 12.5588L12.874 4.28568H4.12636L4.83636 12.5588ZM7.17636 6.28568C7.29336 6.28568 7.40558 6.33083 7.48831 6.41121C7.57105 6.49158 7.61753 6.60059 7.61753 6.71425V11.5714C7.61753 11.6851 7.57105 11.7941 7.48831 11.8744C7.40558 11.9548 7.29336 12 7.17636 12C7.05935 12 6.94713 11.9548 6.8644 11.8744C6.78166 11.7941 6.73518 11.6851 6.73518 11.5714V6.71425C6.73518 6.60059 6.78166 6.49158 6.8644 6.41121C6.94713 6.33083 7.05935 6.28568 7.17636 6.28568ZM10.2646 6.71425C10.2646 6.60059 10.2181 6.49158 10.1354 6.41121C10.0526 6.33083 9.94042 6.28568 9.82341 6.28568C9.70641 6.28568 9.59419 6.33083 9.51146 6.41121C9.42872 6.49158 9.38224 6.60059 9.38224 6.71425V11.5714C9.38224 11.6851 9.42872 11.7941 9.51146 11.8744C9.59419 11.9548 9.70641 12 9.82341 12C9.94042 12 10.0526 11.9548 10.1354 11.8744C10.2181 11.7941 10.2646 11.6851 10.2646 11.5714V6.71425Z" fill="white"/>
</svg>
