<svg width="20" height="20" viewBox="0 0 20 20" fill="none" xmlns="http://www.w3.org/2000/svg">
<g clip-path="url(#clip0_11682_4991)">
<path d="M0.825562 3.30273V8.25644H5.77927" stroke="#2E2E2E" stroke-width="2" stroke-linecap="round" stroke-linejoin="round"/>
<path d="M18.9892 16.5123V11.5586H14.0355" stroke="#2E2E2E" stroke-width="2" stroke-linecap="round" stroke-linejoin="round"/>
<path d="M16.9168 7.43027C16.4981 6.24698 15.7865 5.18905 14.8483 4.35519C13.9101 3.52133 12.776 2.93871 11.5517 2.66171C10.3275 2.38471 9.05304 2.42235 7.84728 2.77112C6.64152 3.11989 5.54376 3.76842 4.65643 4.65619L0.825562 8.25588M18.9891 11.5584L15.1583 15.158C14.2709 16.0458 13.1732 16.6943 11.9674 17.0431C10.7617 17.3919 9.4872 17.4295 8.26296 17.1525C7.03872 16.8755 5.90459 16.2929 4.96642 15.459C4.02824 14.6252 3.31659 13.5673 2.89786 12.384" stroke="#2E2E2E" stroke-width="2" stroke-linecap="round" stroke-linejoin="round"/>
</g>
<defs>
<clipPath id="clip0_11682_4991">
<rect width="19.8148" height="19.8148" fill="white"/>
</clipPath>
</defs>
</svg>
