<?xml version="1.0" encoding="utf-8"?>
<!-- Generator: Adobe Illustrator 19.0.0, SVG Export Plug-In . SVG Version: 6.00 Build 0)  -->
<svg version="1.1" id="Layer_1" xmlns="http://www.w3.org/2000/svg" xmlns:xlink="http://www.w3.org/1999/xlink" x="0px" y="0px"
	 viewBox="0 0 172.8 58.7" style="enable-background:new 0 0 172.8 58.7;" xml:space="preserve">
<style type="text/css">
	.st0{fill:#F7923E;}
	.st1{fill:#F5DA45;}
	.st2{enable-background:new    ;}
	.st3{fill:#595A5C;}
</style>
<g id="logo">
	<g id="Layer_1-2_2_">
		<path class="st0" d="M0.5,12.4h7v30.2h-7V12.4z"/>
		<path class="st0" d="M11.9,12.4h7v5.7H19c1-2.3,3.4-6.3,8.9-6.3c4.4,0,8.2,3.1,8.2,10v20.9h-7.1V25.4c0-6.2-0.6-7-3.1-7
			c-4.8,0-7.1,6.5-7.1,11.3v13h-7V12.4z"/>
		<path class="st0" d="M47.1,42.6h-7V5l7-4.3V42.6z"/>
		<polygon class="st1" points="0.5,5.4 7.5,1.2 7.5,10.1 0.5,10.1 		"/>
		<path class="st0" d="M87.9,38.8h-0.1c-1,2-3,4.2-7.9,4.2c-5.1,0-8.9-3-8.9-7.9c0-10,12.7-10.1,16.9-10.2v-3c0-3-0.8-5.5-4.3-5.5
			C79.8,16.4,79,19,79,21h-6.9c0-5.8,3.8-9.6,11.5-9.6c7.5,0,11,3.2,11,9.4v21.5h-6.7L87.9,38.8z M81.6,38.1c4.6,0,6.3-5,6.3-9.1
			c-4.6,0-10,1.4-10,5.5C77.9,36.8,79.2,38.1,81.6,38.1z"/>
		<path class="st0" d="M104.7,15.7h0.1c1.6-2.7,4.6-4.4,7.8-4.3c7.2,0,10.4,6.2,10.4,15.8c0,8.4-2.9,15.8-12.8,15.8
			c-7.9,0-12.6-4.5-12.6-13.5V5.2l7-4.3V15.7z M110.3,38.1c4.5,0,5.3-5.9,5.3-10.9c0-5.5-0.6-11.3-5.3-11.3c-4.3,0-5.6,6.2-5.6,11.3
			C104.7,34.8,105.9,38.1,110.3,38.1L110.3,38.1z"/>
		<path class="st0" d="M125.6,12.1h7v30.2h-7V12.1z"/>
		<path class="st0" d="M154.8,42.5c-1.9,0.3-3.9,0.5-5.8,0.5c-8,0-9.3-3.8-9.3-8.3V17h-5.9v-4.9h5.9V4.9l7.1-4.3v11.4h8.9V17h-8.9
			v14.3c0,3.6,0.4,6.8,4.8,6.8c1.1,0,2.2-0.2,3.2-0.5V42.5z"/>
		<path class="st0" d="M155.5,12.1h7v5.6h0.1c1.7-2.9,3.7-6.3,9.8-6.3v7.4c-7.1,0-9.9,3-9.9,10.3v13.2h-7.1V12.1z"/>
		<polygon class="st1" points="125.6,5.2 132.6,1.4 132.6,10.2 125.6,10.2 		"/>
		<path class="st0" d="M52.9,17.6c4.9,3.2,10.3,6.6,15,9.9c0.5,0.4,1.1,0.8,1.7,1.2c-1.6,0-3.4-0.5-3.5,0.9c0,0.9,0,1.8,0.1,2.6
			l0.1,1.7l0.1,1.8l0.1,1.8l0.1,2.6c0,0.7,0.1,1.5,0.1,2.2c0-0.7,0.1-1.5,0.1-2.2l0.1-2.6c0-0.6,0.1-1.2,0.1-1.8l0.1-1.8l0.1-1.7
			c0-0.4,0.1-2,0.2-2.6c1.1,0.1,2.2,0.2,3.3,0.1c2.6-0.4-0.8-2.8-1.3-3.3c-4.3-3.6-9.3-7.2-13.9-10.7c-0.8-0.5-1.8-0.5-2.6,0
			c-0.5,0.3-0.7,0.9-0.4,1.3C52.6,17.4,52.7,17.5,52.9,17.6z"/>
		<path class="st0" d="M55.5,17.6c-1.9,1.1-4.2,2.7-6,3.9c-1.6,1.1-3.4,2.2-5,3.3c0,0-0.2,0.1-0.2,0.2c0-0.1,2.8-3.1,3.2-3.5
			c1.7-1.8,3.6-4,5.4-5.6c0.8-0.5,1.8-0.5,2.6-0.1c0.5,0.2,0.7,0.8,0.5,1.3C55.8,17.3,55.7,17.5,55.5,17.6z"/>
		<path class="st1" d="M51.8,31h2.6c0.3,0,0.5,0.2,0.5,0.5v2.1c0,0.3-0.2,0.5-0.5,0.5h-2.6c-0.3,0-0.5-0.2-0.5-0.5v-2.1
			C51.3,31.2,51.5,31,51.8,31z"/>
		<path class="st1" d="M56.4,31H59c0.3,0,0.5,0.2,0.5,0.5v2.1c0,0.3-0.2,0.5-0.5,0.5h-2.6c-0.3,0-0.5-0.2-0.5-0.5v-2.1
			C55.9,31.2,56.1,31,56.4,31z"/>
		<path class="st1" d="M51.8,34.6h2.6c0.3,0,0.5,0.2,0.5,0.5v2.1c0,0.3-0.2,0.5-0.5,0.5h-2.6c-0.3,0-0.5-0.2-0.5-0.5v-2.1
			C51.3,34.8,51.5,34.6,51.8,34.6z"/>
		<path class="st1" d="M56.4,34.6H59c0.3,0,0.5,0.2,0.5,0.5v2.1c0,0.3-0.2,0.5-0.5,0.5h-2.6c-0.3,0-0.5-0.2-0.5-0.5v-2.1
			C55.9,34.8,56.1,34.6,56.4,34.6z"/>
		<path class="st0" d="M59.8,15.7v3.5c1.4,1,2.8,2.1,4.1,3.1v-6.6c0-0.4-0.3-0.7-0.7-0.7h-2.8C60.2,15,59.8,15.3,59.8,15.7
			C59.8,15.7,59.8,15.7,59.8,15.7z"/>
		<g id="XMLID_53_" class="st2">
			<path id="XMLID_54_" class="st3" d="M105.5,50.2l0,2.3h0.1c0.1,0,0.2,0,0.3,0.1c0.1,0.1,0.1,0.1,0.1,0.2s0,0.2-0.1,0.2
				c-0.1,0.1-0.2,0.1-0.3,0.1h-0.1l0,2.7c0,0.1,0,0.2-0.1,0.3c-0.1,0.1-0.2,0.1-0.3,0.1s-0.2,0-0.2-0.1c-0.1-0.1-0.1-0.2-0.1-0.3
				l0-2.8c-0.8,0-1.5,0-1.8,0c-0.4,0-0.8,0-1.2,0c0,0.9,0,1.6,0,2c0,0.4,0,0.7,0,0.8c0,0.1,0,0.2-0.1,0.3c-0.1,0.1-0.2,0.1-0.3,0.1
				c-0.1,0-0.2,0-0.2-0.1c-0.1-0.1-0.1-0.2-0.1-0.3c0-0.1,0-0.3,0-0.5c0-0.6,0-1.4,0-2.3h-0.2c-0.3,0-0.4-0.1-0.4-0.3
				c0-0.1,0-0.2,0.1-0.2s0.2-0.1,0.3-0.1h0.2l0-2.4c0-0.1,0-0.2,0.1-0.3c0.1-0.1,0.2-0.1,0.2-0.1c0.1,0,0.2,0,0.3,0.1
				c0.1,0.1,0.1,0.2,0.1,0.3l0,2.4c0.6,0,1.1,0,1.6,0c0.5,0,1,0,1.4,0l0-2.4c0-0.1,0-0.2,0.1-0.3c0.1-0.1,0.2-0.1,0.2-0.1
				s0.2,0,0.3,0.1C105.5,50,105.5,50.1,105.5,50.2z"/>
			<path id="XMLID_56_" class="st3" d="M108.9,51.9c0.6,0,1.1,0.2,1.5,0.7c0.4,0.4,0.6,1,0.6,1.6c0,0.6-0.2,1.2-0.6,1.6
				c-0.4,0.4-0.9,0.7-1.5,0.7c-0.6,0-1.1-0.2-1.4-0.7c-0.4-0.4-0.6-1-0.6-1.6s0.2-1.2,0.6-1.6C107.8,52.1,108.3,51.9,108.9,51.9z
				 M109.9,55.4c0.3-0.3,0.4-0.7,0.4-1.2c0-0.5-0.1-0.9-0.4-1.2c-0.3-0.3-0.6-0.5-1-0.5s-0.7,0.2-1,0.5c-0.3,0.3-0.4,0.7-0.4,1.2
				c0,0.5,0.1,0.9,0.4,1.2s0.6,0.5,1,0.5S109.6,55.7,109.9,55.4z"/>
			<path id="XMLID_59_" class="st3" d="M112.6,52.6l-0.1,1.9c0,0.4,0.1,0.7,0.2,1c0.2,0.2,0.4,0.4,0.7,0.4c0.3,0,0.6-0.2,0.9-0.5
				c0.3-0.3,0.5-0.7,0.6-1.1l0-1.9c0-0.3,0.1-0.4,0.3-0.4c0.3,0,0.4,0.2,0.4,0.6s-0.1,1-0.2,1.7c0,0.4,0,0.8,0.1,1.1
				c0.1,0.3,0.1,0.4,0.2,0.5c0,0,0.1,0,0.1,0c0,0,0.1,0,0.1,0c0,0,0,0,0,0.1c0,0.2,0,0.3-0.1,0.4c-0.1,0.1-0.2,0.1-0.4,0.1
				c-0.4,0-0.5-0.4-0.5-1.1c-0.4,0.7-1,1.1-1.6,1.1c-0.5,0-0.8-0.2-1.1-0.5c-0.3-0.3-0.4-0.8-0.4-1.3l0.1-1.3c0-0.2,0-0.4-0.1-0.6
				s-0.1-0.3-0.1-0.4c0-0.1,0-0.2,0.1-0.2c0.1-0.1,0.2-0.1,0.3-0.1C112.5,51.9,112.6,52.2,112.6,52.6z"/>
			<path id="XMLID_61_" class="st3" d="M119.9,55.1c0,0.4-0.2,0.7-0.5,1c-0.3,0.2-0.7,0.4-1.1,0.4s-0.8-0.1-1.2-0.3
				c-0.3-0.2-0.5-0.4-0.5-0.6c0-0.1,0-0.2,0.1-0.2c0.1-0.1,0.1-0.1,0.2-0.1c0.1,0,0.1,0,0.2,0c0,0,0.1,0.1,0.2,0.2
				c0.1,0.1,0.1,0.1,0.2,0.2c0.1,0.1,0.2,0.1,0.3,0.2c0.2,0.1,0.3,0.1,0.5,0.1c0.3,0,0.6-0.1,0.8-0.2s0.3-0.3,0.3-0.6
				c0-0.3-0.3-0.5-0.9-0.7c-0.2-0.1-0.5-0.2-0.7-0.3c-0.2-0.1-0.4-0.2-0.6-0.4s-0.3-0.4-0.3-0.6c0-0.3,0.1-0.6,0.4-0.8
				s0.6-0.3,1-0.3c0.4,0,0.7,0.1,1,0.2c0.2,0.1,0.4,0.3,0.4,0.4c0,0.2-0.1,0.3-0.3,0.3c-0.1,0-0.2,0-0.3-0.1
				c-0.3-0.2-0.5-0.3-0.8-0.3s-0.4,0.1-0.6,0.2c-0.2,0.1-0.2,0.2-0.2,0.4s0.1,0.3,0.3,0.4c0.2,0.1,0.4,0.2,0.6,0.3s0.5,0.2,0.7,0.3
				s0.4,0.3,0.6,0.4C119.8,54.6,119.9,54.8,119.9,55.1z"/>
			<path id="XMLID_63_" class="st3" d="M121.2,50.1c0.1,0,0.2,0,0.3,0.1c0.1,0.1,0.1,0.2,0.1,0.3s0,0.2-0.1,0.4
				c-0.1,0.1-0.2,0.2-0.3,0.2c-0.1,0-0.2,0-0.3-0.1c-0.1-0.1-0.1-0.2-0.1-0.3c0-0.1,0-0.2,0.1-0.3C121,50.1,121.1,50.1,121.2,50.1z
				 M121.5,54.2l0,1.8c0,0.3-0.1,0.4-0.3,0.4c-0.2,0-0.3-0.1-0.3-0.4l0-1.8l0-1.8c0-0.3,0.1-0.4,0.3-0.4c0.2,0,0.3,0.1,0.3,0.4
				L121.5,54.2z"/>
			<path id="XMLID_66_" class="st3" d="M126.4,53.6l0,1.4c0,0.2,0,0.3,0,0.4c0,0.1,0,0.2,0.1,0.3c0,0.1,0.1,0.1,0.1,0.2
				c0,0,0.1,0,0.1,0c0,0,0.1,0,0.1,0c0,0,0,0,0,0.1c0,0.1,0,0.3-0.1,0.4s-0.2,0.2-0.3,0.2c-0.2,0-0.4-0.1-0.5-0.3
				c-0.1-0.2-0.1-0.4-0.1-0.8l0-1.6c0-0.4-0.1-0.7-0.3-0.9c-0.2-0.2-0.4-0.4-0.7-0.4c-0.3,0-0.6,0.2-0.9,0.5
				c-0.3,0.3-0.5,0.7-0.6,1.1l0,1.9c0,0.3-0.1,0.4-0.3,0.4c-0.3,0-0.4-0.2-0.4-0.6s0.1-1,0.2-1.7c0-0.2,0-0.6-0.1-1
				s-0.1-0.7-0.1-0.8c0-0.1,0-0.2,0.1-0.3s0.1-0.1,0.2-0.1c0.1,0,0.2,0,0.2,0.1c0.1,0.1,0.1,0.2,0.1,0.3s0,0.2,0,0.4s0,0.3,0,0.4
				c0.4-0.7,0.9-1.1,1.5-1.1c0.5,0,0.8,0.2,1.1,0.5C126.3,52.8,126.4,53.2,126.4,53.6z"/>
			<path id="XMLID_68_" class="st3" d="M130.6,52.3c0-0.3,0.1-0.4,0.3-0.4c0.3,0,0.4,0.2,0.4,0.6s-0.1,1-0.2,1.7
				c0.1,0.7,0.1,1.2,0.1,1.6c0,0.8-0.2,1.4-0.5,1.8c-0.4,0.5-0.8,0.7-1.5,0.7c-0.4,0-0.7-0.1-1-0.2c-0.3-0.1-0.5-0.3-0.5-0.4
				s0.1-0.2,0.2-0.2c0.1,0,0.2,0.1,0.4,0.2c0.2,0.1,0.5,0.2,0.8,0.2c0.5,0,0.8-0.2,1.1-0.5c0.3-0.3,0.4-0.8,0.4-1.3
				c0-0.2,0-0.4,0-0.6c-0.1,0.3-0.3,0.6-0.6,0.8c-0.3,0.2-0.6,0.3-0.9,0.3s-0.6-0.1-0.8-0.2c-0.2-0.1-0.4-0.3-0.5-0.5
				c-0.3-0.4-0.4-0.9-0.4-1.5c0-0.6,0.2-1.1,0.6-1.6c0.4-0.5,0.9-0.7,1.4-0.7C130,51.9,130.3,52.1,130.6,52.3z M130.7,54.3V53
				c-0.3-0.3-0.7-0.5-1-0.5c-0.4,0-0.7,0.2-1,0.5c-0.3,0.3-0.4,0.7-0.4,1.2c0,0.5,0.1,0.9,0.3,1.2c0.2,0.3,0.4,0.5,0.7,0.5
				s0.6-0.1,0.9-0.4C130.3,55.1,130.5,54.8,130.7,54.3z"/>
			<path id="XMLID_71_" class="st3" d="M138.4,54.6c0,0.5-0.2,1-0.6,1.3c-0.4,0.4-0.9,0.5-1.5,0.5c-0.5,0-0.9-0.1-1.3-0.3
				c-0.4-0.2-0.6-0.5-0.6-0.7c0-0.1,0-0.2,0.1-0.2s0.1-0.1,0.2-0.1s0.2,0,0.3,0.1c0.1,0.1,0.2,0.2,0.3,0.2c0.1,0.1,0.2,0.2,0.4,0.2
				c0.2,0.1,0.4,0.1,0.6,0.1c0.4,0,0.7-0.1,1-0.3c0.3-0.2,0.4-0.5,0.4-0.9c0-0.3-0.1-0.5-0.3-0.7c-0.2-0.2-0.5-0.4-0.8-0.6
				c-0.3-0.2-0.6-0.4-0.9-0.5s-0.6-0.4-0.8-0.7s-0.3-0.5-0.3-0.9c0-0.4,0.2-0.8,0.5-1.1c0.4-0.3,0.8-0.4,1.2-0.4s0.9,0.1,1.2,0.2
				c0.3,0.2,0.5,0.3,0.5,0.5c0,0.1,0,0.2-0.1,0.2c-0.1,0.1-0.1,0.1-0.2,0.1s-0.2,0-0.3-0.1s-0.2-0.1-0.2-0.2
				c-0.1-0.1-0.2-0.1-0.3-0.2c-0.2,0-0.3-0.1-0.6-0.1c-0.3,0-0.5,0.1-0.7,0.3c-0.2,0.2-0.3,0.4-0.3,0.6s0.1,0.5,0.3,0.7
				c0.2,0.2,0.5,0.4,0.8,0.6c0.3,0.2,0.6,0.4,0.9,0.6c0.3,0.2,0.6,0.4,0.8,0.7S138.4,54.3,138.4,54.6z"/>
			<path id="XMLID_73_" class="st3" d="M139.8,50.1c0.1,0,0.2,0,0.3,0.1c0.1,0.1,0.1,0.2,0.1,0.3s0,0.2-0.1,0.4
				c-0.1,0.1-0.2,0.2-0.3,0.2c-0.1,0-0.2,0-0.3-0.1c-0.1-0.1-0.1-0.2-0.1-0.3c0-0.1,0-0.2,0.1-0.3C139.6,50.1,139.7,50.1,139.8,50.1
				z M140,54.2l0,1.8c0,0.3-0.1,0.4-0.3,0.4s-0.3-0.1-0.3-0.4l0-1.8l0-1.8c0-0.3,0.1-0.4,0.3-0.4s0.3,0.1,0.3,0.4L140,54.2z"/>
			<path id="XMLID_76_" class="st3" d="M147.5,53.6l0,1.4c0,0.2,0,0.3,0,0.4c0,0.1,0,0.2,0.1,0.3c0,0.1,0.1,0.1,0.1,0.2
				c0,0,0.1,0,0.1,0c0,0,0.1,0,0.1,0c0,0,0,0,0,0.1c0,0.1,0,0.3-0.1,0.4s-0.2,0.2-0.3,0.2c-0.2,0-0.4-0.1-0.5-0.3
				c-0.1-0.2-0.1-0.4-0.1-0.8l0-1.6c0-0.4-0.1-0.7-0.2-0.9c-0.2-0.2-0.4-0.4-0.6-0.4s-0.5,0.2-0.8,0.5c-0.3,0.3-0.4,0.7-0.5,1.1
				l0,1.9c0,0.3-0.1,0.4-0.3,0.4c-0.3,0-0.4-0.2-0.4-0.6s0.1-1,0.2-1.7c0-1.1-0.3-1.6-0.9-1.6c-0.3,0-0.5,0.2-0.8,0.5
				c-0.3,0.3-0.4,0.7-0.5,1.1l0,1.9c0,0.3-0.1,0.4-0.3,0.4c-0.3,0-0.4-0.2-0.4-0.6s0.1-1,0.2-1.7c0-0.2,0-0.6-0.1-1
				s-0.1-0.7-0.1-0.8c0-0.1,0-0.2,0.1-0.3c0.1-0.1,0.1-0.1,0.2-0.1s0.2,0,0.2,0.1c0.1,0.1,0.1,0.2,0.1,0.3s0,0.2,0,0.4
				c0,0.1,0,0.3,0,0.4c0.4-0.7,0.9-1.1,1.5-1.1c0.3,0,0.6,0.1,0.8,0.3c0.2,0.2,0.4,0.5,0.4,0.8c0.4-0.7,0.9-1.1,1.5-1.1
				c0.4,0,0.8,0.2,1,0.5C147.4,52.8,147.5,53.2,147.5,53.6z"/>
			<path id="XMLID_78_" class="st3" d="M149,54.7l0-0.3v-0.1c0-0.2,0-0.6-0.1-1.1c-0.1-0.5-0.1-0.7-0.1-0.8c0-0.1,0-0.2,0.1-0.3
				c0.1-0.1,0.1-0.1,0.2-0.1s0.2,0,0.2,0.1c0.1,0.1,0.1,0.2,0.1,0.3s0,0.2,0,0.4s0,0.3,0,0.4c0.2-0.3,0.4-0.6,0.6-0.8
				s0.5-0.3,0.9-0.3s0.7,0.1,1,0.4c0.3,0.2,0.5,0.5,0.6,0.8c0.1,0.3,0.2,0.6,0.2,0.9c0,0.6-0.2,1.2-0.6,1.6
				c-0.4,0.5-0.9,0.7-1.5,0.7c-0.4,0-0.8-0.1-1.2-0.4c0,0.7,0,1.2,0,1.5c0,0.3,0,0.5-0.1,0.6c-0.1,0.1-0.1,0.1-0.3,0.1
				c-0.1,0-0.2-0.1-0.3-0.2c-0.1-0.1-0.1-0.2-0.1-0.4c0-0.2,0-0.4,0-0.7c0-0.3,0.1-0.6,0.1-1c0-0.4,0.1-0.8,0.1-1.2V54.7z
				 M151.7,55.3c0.3-0.3,0.4-0.7,0.4-1.2c0-0.5-0.1-0.8-0.3-1.2s-0.5-0.5-0.8-0.5c-0.6,0-1.1,0.5-1.5,1.5v1.4
				c0.3,0.3,0.8,0.5,1.2,0.5C151.1,55.9,151.4,55.7,151.7,55.3z"/>
			<path id="XMLID_81_" class="st3" d="M154.4,53.1l0,2.9c0,0.3-0.1,0.4-0.3,0.4s-0.3-0.1-0.3-0.4l0-2.9l0-2.9
				c0-0.3,0.1-0.4,0.3-0.4s0.3,0.1,0.3,0.4L154.4,53.1z"/>
			<path id="XMLID_83_" class="st3" d="M156.1,50.1c0.1,0,0.2,0,0.3,0.1c0.1,0.1,0.1,0.2,0.1,0.3s0,0.2-0.1,0.4
				c-0.1,0.1-0.2,0.2-0.3,0.2c-0.1,0-0.2,0-0.3-0.1c-0.1-0.1-0.1-0.2-0.1-0.3c0-0.1,0-0.2,0.1-0.3C155.9,50.1,156,50.1,156.1,50.1z
				 M156.3,54.2l0,1.8c0,0.3-0.1,0.4-0.3,0.4s-0.3-0.1-0.3-0.4l0-1.8l0-1.8c0-0.3,0.1-0.4,0.3-0.4s0.3,0.1,0.3,0.4L156.3,54.2z"/>
			<path id="XMLID_86_" class="st3" d="M158.5,52l0.8,0c0.1,0,0.2,0,0.2,0.1c0.1,0,0.1,0.1,0.1,0.2c0,0.2-0.1,0.3-0.3,0.3l-0.8,0
				v0.6c0,0.8,0,1.5,0,2c0,0.5,0,0.9,0,0.9c0,0.1,0,0.2-0.1,0.3s-0.1,0.1-0.2,0.1c-0.1,0-0.2,0-0.2-0.1s-0.1-0.2-0.1-0.3
				c0-0.1,0-0.3,0-0.5c0-0.8,0-1.6,0-2.4v-0.6l-0.4,0c-0.2,0-0.3-0.1-0.3-0.3c0-0.1,0-0.2,0.1-0.2c0.1,0,0.1-0.1,0.2-0.1l0.4,0v-0.7
				c0-0.5,0.1-0.9,0.3-1.2c0.2-0.2,0.5-0.4,0.7-0.4s0.5,0.1,0.7,0.2c0.2,0.1,0.3,0.2,0.3,0.3c0,0.2-0.1,0.3-0.2,0.3
				c-0.1,0-0.2,0-0.3-0.1c-0.1-0.1-0.2-0.1-0.4-0.1c-0.4,0-0.5,0.3-0.5,1V52z"/>
			<path id="XMLID_88_" class="st3" d="M160.8,50.1c0.1,0,0.2,0,0.3,0.1c0.1,0.1,0.1,0.2,0.1,0.3s0,0.2-0.1,0.4
				c-0.1,0.1-0.2,0.2-0.3,0.2c-0.1,0-0.2,0-0.3-0.1c-0.1-0.1-0.1-0.2-0.1-0.3c0-0.1,0-0.2,0.1-0.3C160.6,50.1,160.7,50.1,160.8,50.1
				z M161.1,54.2l0,1.8c0,0.3-0.1,0.4-0.3,0.4c-0.2,0-0.3-0.1-0.3-0.4l0-1.8l0-1.8c0-0.3,0.1-0.4,0.3-0.4c0.2,0,0.3,0.1,0.3,0.4
				L161.1,54.2z"/>
			<path id="XMLID_91_" class="st3" d="M164.4,51.9c0.5,0,0.8,0.1,1.1,0.4c0.3,0.3,0.4,0.6,0.4,1s-0.2,0.7-0.5,0.9s-0.8,0.3-1.3,0.3
				c-0.3,0-0.7,0-1.1-0.1c0,0.4,0.2,0.7,0.5,1c0.3,0.3,0.6,0.4,0.9,0.4c0.2,0,0.4,0,0.5-0.1c0.2-0.1,0.3-0.1,0.4-0.2
				c0.2-0.2,0.4-0.3,0.5-0.3c0.1,0,0.1,0,0.2,0.1s0.1,0.1,0.1,0.2c0,0.2-0.2,0.3-0.5,0.6c-0.3,0.2-0.7,0.3-1.1,0.3
				c-0.6,0-1.1-0.2-1.4-0.6s-0.5-0.9-0.6-1.5c-0.3-0.1-0.5-0.2-0.5-0.4c0-0.1,0-0.2,0.1-0.2s0.1-0.1,0.2-0.1c0.1,0,0.2,0,0.3,0.1
				c0.1-0.5,0.4-0.9,0.7-1.3C163.5,52.1,164,51.9,164.4,51.9z M164.1,54c0.4,0,0.7-0.1,0.9-0.2c0.2-0.1,0.3-0.3,0.3-0.5
				s-0.1-0.4-0.2-0.6c-0.2-0.2-0.4-0.2-0.6-0.2c-0.4,0-0.7,0.1-1,0.4c-0.3,0.3-0.4,0.6-0.5,1C163.3,54,163.7,54,164.1,54z"/>
			<path id="XMLID_94_" class="st3" d="M171,55.8c0.2,0,0.2,0,0.2,0.1c0,0.1,0,0.2-0.1,0.3c-0.1,0.1-0.2,0.2-0.4,0.2
				s-0.3-0.1-0.4-0.3s-0.2-0.5-0.2-0.9c-0.4,0.8-0.9,1.2-1.6,1.2c-0.4,0-0.7-0.1-1-0.4s-0.5-0.5-0.6-0.8c-0.1-0.3-0.2-0.6-0.2-0.9
				c0-0.6,0.2-1.2,0.6-1.6c0.4-0.5,0.9-0.7,1.5-0.7c0.4,0,0.8,0.1,1.2,0.4c0-0.8,0-1.4,0-1.8c0-0.4,0-0.6,0.1-0.7
				c0.1-0.1,0.1-0.1,0.3-0.1c0.1,0,0.2,0,0.3,0.2c0.1,0.1,0.1,0.2,0.1,0.4c0,0.2,0,0.4,0,0.7s-0.1,0.7-0.1,1.1
				c0,0.5-0.1,0.9-0.1,1.3c0,0.7,0,1.2,0.1,1.6S170.8,55.8,171,55.8z M170,54.4V53c-0.3-0.3-0.8-0.5-1.2-0.5c-0.4,0-0.7,0.2-1,0.5
				c-0.3,0.3-0.4,0.7-0.4,1.2c0,0.5,0.1,0.8,0.3,1.2s0.5,0.5,0.8,0.5C169.2,55.9,169.7,55.4,170,54.4z"/>
		</g>
	</g>
</g>
</svg>
